<?xml version="1.0" standalone="no"?>
<!DOCTYPE svg PUBLIC "-//W3C//DTD SVG 1.1//EN" "http://www.w3.org/Graphics/SVG/1.1/DTD/svg11.dtd" >
<svg xmlns="http://www.w3.org/2000/svg" xmlns:xlink="http://www.w3.org/1999/xlink" version="1.1">
<metadata>
Created by FontForge 20170731 at Mon Jun 13 19:34:27 2011
 By Aleksey,,,
Copyright (c) 2011 Linotype Corp., www.linotype.com. All rights reserved. This font software may not be reproduced, modified, disclosed or transferred without the express written approval of Linotype Corp. Neue Haas Grotesk is a trademark of Linotype Corp. registered in the U.S. Patent and Trademark Office and may be registered in certain other jurisdictions in the name of Linotype Corp. or its licensee Linotype GmbH. This typeface is original artwork of Christian Schwartz. The design may be protected in certain jurisdictions.
</metadata>
<defs>
<font id="NeueHaasGroteskDisp-Bold" horiz-adv-x="566" >
  <font-face 
    font-family="NeueHaasGroteskDisp"
    font-weight="700"
    font-stretch="normal"
    units-per-em="1000"
    panose-1="2 0 8 3 0 0 0 2 0 3"
    ascent="800"
    descent="-200"
    x-height="511"
    cap-height="715"
    bbox="-181 -263 1248 935"
    underline-thickness="20"
    underline-position="-173"
    unicode-range="U+0020-FB02"
  />
<missing-glyph horiz-adv-x="155" 
 />
    <glyph glyph-name=".notdef" horiz-adv-x="155" 
 />
    <glyph glyph-name=".null" horiz-adv-x="0" 
 />
    <glyph glyph-name="nonmarkingreturn" horiz-adv-x="333" 
 />
    <glyph glyph-name="space" unicode=" " horiz-adv-x="155" 
 />
    <glyph glyph-name="exclam" unicode="!" horiz-adv-x="264" 
d="M90 234l-42 312v169h168v-169l-42 -312h-84zM47 0v168h170v-168h-170z" />
    <glyph glyph-name="quotedbl" unicode="&#x22;" horiz-adv-x="425" 
d="M41 446v269h141v-269h-141zM243 446v269h141v-269h-141z" />
    <glyph glyph-name="numbersign" unicode="#" horiz-adv-x="600" 
d="M89 0l28 173h-93l22 126h92l16 100h-93l22 126h92l27 161h104l-27 -161h103l27 161h104l-27 -161h94l-22 -126h-93l-16 -100h92l-21 -126h-92l-28 -173h-104l28 173h-103l-28 -173h-104zM242 299h103l16 100h-103z" />
    <glyph glyph-name="dollar" unicode="$" horiz-adv-x="623" 
d="M281 -103v90q-126 8 -194.5 67.5t-70.5 166.5h166q10 -89 99 -102v162q-51 13 -79 22t-65 26.5t-56 37.5t-32.5 53.5t-13.5 76.5q0 93 68 145.5t178 56.5v61h61v-62q108 -8 169.5 -61.5t66.5 -151.5h-157q-10 70 -79 84v-146q127 -29 189 -77t62 -143q0 -98 -69.5 -154.5
t-181.5 -62.5v-89h-61zM281 439v132q-82 -8 -82 -64q0 -27 18.5 -41t63.5 -27zM342 263v-144q84 13 84 71q0 29 -19.5 44.5t-64.5 28.5z" />
    <glyph glyph-name="percent" unicode="%" horiz-adv-x="868" 
d="M203 386q60 0 60 113q0 116 -60 116t-60 -116q0 -113 60 -113zM203 299q-79 0 -131 55.5t-52 144.5q0 91 51 146t132 55q82 0 132.5 -55t50.5 -146q0 -90 -51 -145t-132 -55zM203 0l369 686h94l-370 -686h-93zM666 70q60 0 60 114q0 52 -15 83.5t-45 31.5q-60 0 -60 -115
q0 -114 60 -114zM665 -17q-79 0 -131 55t-52 146q0 89 52 144.5t131 55.5q83 0 133.5 -54.5t50.5 -145.5t-51 -146t-133 -55z" />
    <glyph glyph-name="ampersand" unicode="&#x26;" horiz-adv-x="697" 
d="M276 -12q-120 0 -187 59t-67 151q0 137 158 209q-55 64 -55 138q0 76 55 125t146 49q89 0 145.5 -47t56.5 -125q0 -61 -35 -101t-97 -70l86 -108q20 47 27 90h141q-11 -106 -78 -204l123 -154h-199l-35 45q-90 -57 -185 -57zM283 119q53 0 97 31l-121 157
q-68 -41 -68 -105q0 -38 26 -60.5t66 -22.5zM326 460q57 33 57 86q0 23 -15 39t-38 16q-24 0 -39 -15.5t-15 -39.5q0 -41 50 -86z" />
    <glyph glyph-name="quotesingle" unicode="'" horiz-adv-x="223" 
d="M41 446v269h141v-269h-141z" />
    <glyph glyph-name="parenleft" unicode="(" horiz-adv-x="341" 
d="M324 -138h-137q-130 193 -130 433q0 135 36 254.5t93 204.5h138q-106 -205 -106 -459q0 -213 106 -433z" />
    <glyph glyph-name="parenright" unicode=")" horiz-adv-x="341" 
d="M154 -138h-137q106 217 106 456q0 230 -106 436h138q129 -196 129 -436q0 -133 -36 -252t-94 -204z" />
    <glyph glyph-name="asterisk" unicode="*" horiz-adv-x="441" 
d="M148 353l-74 54l74 98l-117 39l32 83l111 -39v127h94v-127l111 39l32 -83l-117 -39l74 -98l-72 -54l-74 104z" />
    <glyph glyph-name="plus" unicode="+" 
d="M213 79v185h-173v131h173v184h140v-184h173v-131h-173v-185h-140z" />
    <glyph glyph-name="comma" unicode="," horiz-adv-x="235" 
d="M34 -179v69q36 10 57 39t21 71h-80v168h171v-155q0 -88 -47 -137q-47 -50 -122 -55z" />
    <glyph glyph-name="hyphen" unicode="-" horiz-adv-x="335" 
d="M32 181v140h272v-140h-272z" />
    <glyph glyph-name="period" unicode="." horiz-adv-x="235" 
d="M32 0v168h171v-168h-171z" />
    <glyph glyph-name="slash" unicode="/" horiz-adv-x="437" 
d="M12 0l267 715h140l-267 -715h-140z" />
    <glyph glyph-name="zero" unicode="0" horiz-adv-x="653" 
d="M327 116q129 0 129 226q0 105 -31.5 166t-97.5 61t-98 -60.5t-32 -166.5q0 -105 32 -165.5t98 -60.5zM326 -16q-135 0 -218.5 98t-83.5 260q0 163 83.5 260.5t219.5 97.5q138 0 220.5 -97.5t82.5 -260.5t-84 -260.5t-220 -97.5z" />
    <glyph glyph-name="one" unicode="1" horiz-adv-x="406" 
d="M173 0v438h-147v114q72 2 121 37t61 102h134v-691h-169z" />
    <glyph glyph-name="two" unicode="2" horiz-adv-x="581" 
d="M554 0h-532q4 143 121 238q30 26 99 76t97 75q45 40 45 85q0 41 -23 65t-66 24q-49 0 -74 -31q-30 -34 -31 -101h-158q0 110 47 174q65 94 220 94q119 0 186.5 -62t67.5 -157q0 -65 -29.5 -109.5t-84.5 -87.5q-17 -14 -86 -63.5t-97 -79.5v-1h298v-139z" />
    <glyph glyph-name="three" unicode="3" horiz-adv-x="599" 
d="M306 -16q-142 0 -216 66q-76 67 -76 187h159q7 -124 126 -124q51 0 79 25.5t28 69.5q0 90 -117 90h-41v117h37q49 0 77.5 21t28.5 59q0 36 -24 57t-66 21q-52 0 -79 -28.5t-30 -76.5h-157q2 105 72.5 168t195.5 63q115 0 184.5 -51.5t69.5 -141.5q0 -96 -104 -137v-2
q124 -38 124 -168q0 -105 -77.5 -160t-193.5 -55z" />
    <glyph glyph-name="four" unicode="4" horiz-adv-x="620" 
d="M340 0v152h-319v155l317 385h166v-412h99v-128h-99v-152h-164zM148 280h192v235h-2l-190 -233v-2z" />
    <glyph glyph-name="five" unicode="5" horiz-adv-x="603" 
d="M303 -16q-121 0 -199.5 57t-90.5 164h165q8 -43 40.5 -65t80.5 -22q51 0 81 32.5t30 84.5q0 53 -30.5 83t-81.5 30q-63 0 -98 -42h-158l70 379h425v-135h-304l-24 -122h2q45 41 133 41q101 0 168.5 -64.5t67.5 -170.5q0 -113 -76.5 -181.5t-200.5 -68.5z" />
    <glyph glyph-name="six" unicode="6" horiz-adv-x="618" 
d="M326 -16q-145 0 -223 97t-78 256q-2 178 83 274q77 88 217 88q106 0 171.5 -49t81.5 -134h-161q-20 63 -90 63q-63 0 -97 -44.5t-38 -128.5h2q62 65 157 65q102 0 174.5 -68t72.5 -175q0 -109 -76.5 -176.5t-195.5 -67.5zM320 110q52 0 85 33t33 84t-33.5 85.5
t-84.5 34.5q-54 0 -86.5 -33.5t-32.5 -86.5q0 -51 33 -84t86 -33z" />
    <glyph glyph-name="seven" unicode="7" horiz-adv-x="545" 
d="M288 0h-176q3 89 26 174t59 153.5t73 120t77 92.5v2h-330v143h507v-130q-98 -98 -164 -243.5t-72 -311.5z" />
    <glyph glyph-name="eight" unicode="8" horiz-adv-x="609" 
d="M306 -16q-129 0 -208 57.5t-79 154.5q0 120 119 171v3q-91 43 -91 138q0 86 70 138.5t188 52.5q120 0 188.5 -50t68.5 -138q0 -87 -90 -137v-3q57 -22 88 -66.5t31 -104.5q0 -99 -79 -157.5t-206 -58.5zM305 109q53 0 85.5 26.5t32.5 71.5q0 46 -31.5 74t-85.5 28
t-87 -28t-33 -74q0 -45 32.5 -71.5t86.5 -26.5zM304 416q47 0 74.5 23.5t27.5 60.5t-27.5 60t-74.5 23t-74 -23t-27 -60q0 -38 27 -61t74 -23z" />
    <glyph glyph-name="nine" unicode="9" horiz-adv-x="617" 
d="M302 -16q-109 0 -177 50.5t-83 135.5h160q20 -65 96 -65q59 0 89 39q36 44 39 136h-2q-60 -67 -153 -67q-107 0 -178.5 66.5t-71.5 175.5t77.5 176.5t198.5 67.5q131 0 206 -77q90 -87 90 -275q0 -173 -71 -266q-74 -97 -220 -97zM301 337q53 0 87.5 33t34.5 85t-34 85.5
t-88 33.5q-53 0 -86.5 -33t-33.5 -85t32.5 -85.5t87.5 -33.5z" />
    <glyph glyph-name="colon" unicode=":" horiz-adv-x="241" 
d="M35 0v168h171v-168h-171zM35 310v168h171v-168h-171z" />
    <glyph glyph-name="semicolon" unicode=";" horiz-adv-x="241" 
d="M37 -179v69q36 10 57 39t21 71h-80v168h171v-155q0 -88 -47 -137q-47 -50 -122 -55zM35 310v168h171v-168h-171z" />
    <glyph glyph-name="less" unicode="&#x3c;" horiz-adv-x="502" 
d="M455 62l-412 173v148l412 173v-143l-183 -71q-9 -3 -30.5 -11t-30.5 -11q-5 -2 -16.5 -6t-17.5 -6v-2q6 -2 17 -5.5t17 -4.5q9 -4 30.5 -10t30.5 -9l183 -66v-149z" />
    <glyph glyph-name="equal" unicode="=" horiz-adv-x="563" 
d="M51 140v127h468v-127h-468zM51 352v127h468v-127h-468z" />
    <glyph glyph-name="greater" unicode="&#x3e;" horiz-adv-x="502" 
d="M47 62v144l183 71q9 4 30.5 11.5t30.5 10.5q15 4 34 11v2q-6 2 -17.5 5t-16.5 5q-9 3 -30.5 9.5t-30.5 10.5l-183 66v148l412 -173v-148z" />
    <glyph glyph-name="question" unicode="?" horiz-adv-x="553" 
d="M335 234h-144q0 72 14.5 103t54.5 64q12 11 43 32t44.5 39t13.5 46q0 34 -24 54.5t-61 20.5q-46 0 -73.5 -27.5t-27.5 -75.5h-161q2 107 73.5 172.5t195.5 65.5q111 0 180 -57t69 -147q0 -44 -16 -78t-32.5 -49t-45.5 -35q-6 -4 -19.5 -12.5t-18 -11.5t-14 -9t-13.5 -9.5
t-9.5 -8t-9.5 -9.5q-19 -24 -19 -68zM175 0v168h171v-168h-171z" />
    <glyph glyph-name="at" unicode="@" horiz-adv-x="909" 
d="M447 -109q-180 0 -296 108t-116 284q0 100 37 183.5t98.5 136.5t139.5 82t163 29q111 0 202 -42t147.5 -129t56.5 -204q0 -123 -56 -192t-147 -69q-114 0 -147 81h-2q-46 -78 -133 -78q-76 0 -120 52.5t-44 143.5q0 107 53 174t142 67q81 0 111 -72h2l7 61h137l-32 -271
q-11 -72 39 -72q38 0 65.5 42t27.5 131q0 142 -84.5 216.5t-225.5 74.5q-143 0 -239.5 -92.5t-96.5 -251.5q0 -138 82 -223t230 -85q93 0 178 37l32 -79q-89 -43 -211 -43zM437 189q40 0 64 36.5t24 94.5q0 41 -17 66.5t-48 25.5q-38 0 -61.5 -37.5t-23.5 -93.5
q0 -41 15.5 -66.5t46.5 -25.5z" />
    <glyph glyph-name="A" unicode="A" horiz-adv-x="697" 
d="M-1 0l257 715h182l258 -715h-186l-42 129h-250l-41 -129h-178zM259 256h168l-54 173q-11 29 -19 64q-6 24 -9 37h-2q-2 -7 -5.5 -19.5t-4.5 -17.5q-3 -9 -9 -31.5t-10 -32.5z" />
    <glyph glyph-name="B" unicode="B" horiz-adv-x="671" 
d="M49 0v715h345q105 0 167 -49q62 -51 62 -137q0 -103 -100 -140v-3q59 -18 93.5 -64.5t34.5 -110.5q0 -104 -73 -160q-64 -51 -176 -51h-353zM224 142h158q44 0 69 22.5t25 61.5q0 41 -26.5 63.5t-69.5 22.5h-156v-170zM224 432h144q39 0 62.5 19t23.5 53q0 33 -23 52
t-62 19h-145v-143z" />
    <glyph glyph-name="C" unicode="C" horiz-adv-x="702" 
d="M373 -16q-157 0 -255 105t-98 266q0 162 97 268t255 106q122 0 204 -63q93 -69 107 -197h-177q-7 49 -43 81t-92 32q-84 0 -127.5 -62t-43.5 -165q0 -100 47 -163t125 -63q59 0 96 33t43 86h177q-7 -108 -86 -183q-86 -81 -229 -81z" />
    <glyph glyph-name="D" unicode="D" horiz-adv-x="705" 
d="M226 149h104q87 0 131.5 52t44.5 152q0 99 -45.5 156.5t-128.5 57.5h-106v-418zM49 0v715h305q148 0 239.5 -99t91.5 -263q0 -193 -124 -288q-85 -65 -218 -65h-294z" />
    <glyph glyph-name="E" unicode="E" horiz-adv-x="628" 
d="M49 0v715h542v-146h-365v-128h313v-138h-313v-153h371v-150h-548z" />
    <glyph glyph-name="F" unicode="F" horiz-adv-x="602" 
d="M49 0v715h532v-149h-355v-145h297v-143h-297v-278h-177z" />
    <glyph glyph-name="G" unicode="G" horiz-adv-x="737" 
d="M361 -16q-150 0 -244 100q-96 104 -96 271q0 173 106 279q95 95 245 95q136 0 217.5 -66.5t99.5 -181.5h-172q-10 46 -46 74t-93 28q-86 0 -131.5 -63t-45.5 -165q0 -101 48.5 -164.5t131.5 -63.5q66 0 107.5 36.5t47.5 88.5v2h-134v130h298v-384h-124l-10 86h-2
q-66 -102 -203 -102z" />
    <glyph glyph-name="H" unicode="H" horiz-adv-x="703" 
d="M49 0v715h177v-271h251v271h177v-715h-177v298h-251v-298h-177z" />
    <glyph glyph-name="I" unicode="I" horiz-adv-x="276" 
d="M50 0v715h177v-715h-177z" />
    <glyph glyph-name="J" unicode="J" horiz-adv-x="545" 
d="M263 -13q-123 0 -186.5 61.5t-63.5 166.5v63h161v-59q0 -86 78 -86q74 0 74 84v498h177v-502q0 -98 -51 -155q-65 -71 -189 -71z" />
    <glyph glyph-name="K" unicode="K" horiz-adv-x="697" 
d="M49 0v715h177v-259l246 259h210l-274 -287l290 -428h-206l-206 309l-60 -63v-246h-177z" />
    <glyph glyph-name="L" unicode="L" horiz-adv-x="565" 
d="M49 0v715h177v-565h321v-150h-498z" />
    <glyph glyph-name="M" unicode="M" horiz-adv-x="834" 
d="M49 0v715h238l87 -313q3 -10 7 -26t9.5 -37.5t8.5 -34.5q2 -7 7.5 -29.5t8.5 -35.5h2q5 23 15 65q15 64 25 98l88 313h240v-715h-162v360q0 50 1 82q1 10 1.5 30t0.5 31h-2q-2 -11 -7 -29.5t-7 -27.5q-12 -54 -19 -76l-103 -370h-146l-102 369q-10 32 -20 77
q-2 7 -6 26.5t-7 30.5h-2q0 -42 1 -61q2 -64 2 -83v-359h-159z" />
    <glyph glyph-name="N" unicode="N" horiz-adv-x="710" 
d="M49 0v715h178l212 -359q1 -2 29 -53q4 -7 11 -20.5t9 -17.5h2q-1 16 -1 46q-1 25 -1 65v339h173v-715h-178l-210 354q-10 12 -30 55q-14 26 -21 41h-2q0 -34 1 -49q0 -15 0.5 -39.5t0.5 -28.5v-333h-173z" />
    <glyph glyph-name="O" unicode="O" horiz-adv-x="747" 
d="M374 127q84 0 128.5 63.5t44.5 165.5q0 103 -44.5 166.5t-128.5 63.5q-83 0 -128.5 -64t-45.5 -166t45 -165.5t129 -63.5zM373 -17q-160 0 -256.5 105t-96.5 268t96.5 268t256.5 105t257 -105t97 -268t-97 -268t-257 -105z" />
    <glyph glyph-name="P" unicode="P" horiz-adv-x="652" 
d="M49 0v715h322q127 0 195 -66q72 -66 72 -176q0 -103 -66 -168.5t-176 -65.5h-167v-239h-180zM229 379h131q47 0 73.5 26t26.5 69t-26 67.5t-74 24.5h-131v-187z" />
    <glyph glyph-name="Q" unicode="Q" horiz-adv-x="745" 
d="M373 127q35 0 64 12l-65 63l82 85l66 -63q25 54 25 132q0 103 -44 166.5t-128 63.5q-83 0 -128 -64t-45 -166t45 -165.5t128 -63.5zM642 -58l-90 86q-79 -45 -180 -45q-160 0 -256 105t-96 268t96 268t256 105t256.5 -105t96.5 -268q0 -150 -82 -251l81 -76z" />
    <glyph glyph-name="R" unicode="R" horiz-adv-x="671" 
d="M49 0v715h342q110 0 180 -54.5t70 -151.5q0 -130 -124 -173v-3q47 -16 71.5 -46.5t32.5 -84.5q6 -36 8.5 -86.5t6.5 -76.5t15 -30v-9h-172q-8 5 -12.5 29t-7.5 68t-7 69q-7 52 -35 77t-84 25h-107v-268h-177zM226 399h133q106 0 106 87q0 40 -26 64.5t-76 24.5h-137v-176
z" />
    <glyph glyph-name="S" unicode="S" horiz-adv-x="650" 
d="M334 -17q-145 0 -231 63t-88 179h178q11 -102 140 -102q48 0 81.5 18.5t33.5 56.5t-32 54.5t-115 36.5q-2 0 -3 0.5t-3 1t-3 0.5q-46 11 -75.5 19.5t-67 26t-59.5 38.5t-37.5 55.5t-15.5 77.5q0 109 78.5 164.5t205.5 55.5q122 0 199 -56t83 -164h-173q-11 86 -115 86
q-47 0 -75 -18.5t-28 -48.5q0 -38 49 -57q25 -9 113 -29q47 -11 78 -21t67.5 -28t57.5 -40t35.5 -57t14.5 -79q0 -109 -82.5 -171t-210.5 -62z" />
    <glyph glyph-name="T" unicode="T" horiz-adv-x="629" 
d="M225 0v565h-208v150h595v-150h-210v-565h-177z" />
    <glyph glyph-name="U" unicode="U" horiz-adv-x="686" 
d="M344 -13q-149 0 -224.5 68.5t-75.5 196.5v463h177v-469q0 -117 123 -117q60 0 90.5 32.5t30.5 87.5v466h177v-463q0 -126 -75.5 -195.5t-222.5 -69.5z" />
    <glyph glyph-name="V" unicode="V" horiz-adv-x="651" 
d="M234 0l-236 715h184l112 -375q4 -15 11.5 -44t10.5 -39q3 -15 11 -43h2q8 28 11 43q3 10 10.5 39t11.5 44l111 375h179l-235 -715h-183z" />
    <glyph glyph-name="W" unicode="W" horiz-adv-x="940" 
d="M196 0l-196 715h179l72 -300q5 -21 13 -66t9 -48q3 -21 11 -63h2q2 14 11 58q19 88 24 112l67 307h164l67 -305q5 -25 23 -113q4 -23 11 -59h2l12 63q12 64 24 116l71 298h178l-196 -715h-173l-75 343q-3 11 -17 88q-1 8 -4 23t-4 22h-2q-1 -8 -4 -23t-4 -22
q0 -2 -6 -36.5t-10 -51.5l-75 -343h-174z" />
    <glyph glyph-name="X" unicode="X" horiz-adv-x="691" 
d="M3 0l237 375l-217 340h202l121 -208h2l123 208h192l-212 -338l237 -377h-209l-134 242h-2l-139 -242h-201z" />
    <glyph glyph-name="Y" unicode="Y" horiz-adv-x="663" 
d="M243 0v264l-242 451h193l92 -185q7 -14 32 -73l15 -36h2l15 36q9 20 34 73l91 185h187l-242 -451v-264h-177z" />
    <glyph glyph-name="Z" unicode="Z" horiz-adv-x="648" 
d="M26 0v141l309 370q4 4 13.5 15t14.5 17q6 7 20 21v3q-10 -1 -28 -1q-15 -1 -40 -1h-264v150h557v-139l-300 -360q-4 -5 -16 -18t-19 -21q-4 -4 -11.5 -12.5t-11.5 -12.5v-3q21 0 31 1q9 0 26 0.5t22 0.5h292v-151h-595z" />
    <glyph glyph-name="bracketleft" unicode="[" horiz-adv-x="398" 
d="M58 -138v892h307v-125h-153v-642h153v-125h-307z" />
    <glyph glyph-name="backslash" unicode="\" horiz-adv-x="437" 
d="M279 0l-267 715h140l267 -715h-140z" />
    <glyph glyph-name="bracketright" unicode="]" horiz-adv-x="398" 
d="M34 -138v125h153v642h-153v125h307v-892h-307z" />
    <glyph glyph-name="asciicircum" unicode="^" horiz-adv-x="466" 
d="M6 425l167 290h120l167 -290h-145l-82 150h-1l-85 -150h-141z" />
    <glyph glyph-name="underscore" unicode="_" horiz-adv-x="430" 
d="M-3 -169v101h436v-101h-436z" />
    <glyph glyph-name="grave" unicode="`" horiz-adv-x="500" 
d="M205 572l-121 148h188l57 -148h-124z" />
    <glyph glyph-name="a" unicode="a" horiz-adv-x="541" 
d="M190 -13q-79 0 -127 41t-48 115q0 78 52.5 114t143.5 47q75 9 102.5 20.5t27.5 36.5q0 55 -70 55q-75 0 -83 -66h-150q2 76 62 126t170 50t166 -42q65 -47 65 -146v-258q0 -62 18 -73v-7h-158q-11 15 -17 57h-2q-50 -70 -152 -70zM242 91q46 0 74.5 25t28.5 67v61
q-24 -12 -84 -27q-49 -12 -69 -26.5t-20 -42.5q0 -57 70 -57z" />
    <glyph glyph-name="b" unicode="b" horiz-adv-x="586" 
d="M352 -16q-106 0 -155 81h-2v-65h-156v715h163v-261h3q53 73 146 73q98 0 158.5 -76.5t60.5 -194.5q0 -127 -59 -199.5t-159 -72.5zM306 113q47 0 73 38t26 106t-26 107t-75 39q-52 0 -79.5 -40.5t-27.5 -106.5q0 -65 29.5 -104t79.5 -39z" />
    <glyph glyph-name="c" unicode="c" horiz-adv-x="544" 
d="M288 -16q-122 0 -197 76.5t-75 194.5t73.5 194.5t194.5 76.5q103 0 167 -53.5t76 -142.5h-157q-18 76 -84 76q-52 0 -78.5 -40t-26.5 -111t26.5 -110t78.5 -39q79 0 89 88h156q-4 -91 -70 -150.5t-173 -59.5z" />
    <glyph glyph-name="d" unicode="d" horiz-adv-x="588" 
d="M240 -16q-100 0 -162 73t-62 199q0 120 62.5 195.5t161.5 75.5q90 0 143 -73h3v261h163v-715h-156v69h-2q-50 -85 -151 -85zM282 113q50 0 79 39.5t29 103.5q0 67 -27 107.5t-79 40.5q-48 0 -75.5 -40t-27.5 -106q0 -67 26.5 -106t74.5 -39z" />
    <glyph glyph-name="e" unicode="e" horiz-adv-x="560" 
d="M289 -15q-125 0 -199 76.5t-74 195.5q0 116 73.5 193t189.5 77q105 0 175 -64q92 -84 90 -249h-368q18 -112 115 -112q61 0 85 51h159q-17 -74 -86 -121q-65 -47 -160 -47zM177 311h202q-5 46 -31 73t-66 27q-87 0 -105 -100z" />
    <glyph glyph-name="f" unicode="f" horiz-adv-x="349" 
d="M77 0v408h-66v104h66v37q0 77 42 119q61 60 217 44v-115q-51 2 -73.5 -9.5t-22.5 -50.5v-25h96v-104h-96v-408h-163z" />
    <glyph glyph-name="g" unicode="g" horiz-adv-x="572" 
d="M277 -177q-107 0 -172.5 42.5t-77.5 122.5h158q17 -50 90 -50q98 0 98 98v51h-4q-52 -59 -131 -59q-92 0 -157 65t-65 178q0 112 60 184t155 72q94 0 144 -70h2v55h156v-462q0 -109 -68 -170q-64 -57 -188 -57zM276 149q51 0 77.5 35.5t26.5 92.5q0 54 -27.5 90.5
t-76.5 36.5q-46 0 -73.5 -34.5t-27.5 -93.5q0 -58 27.5 -92.5t73.5 -34.5z" />
    <glyph glyph-name="h" unicode="h" horiz-adv-x="570" 
d="M39 0v715h163v-266h3q59 78 152 78q83 0 130.5 -53.5t47.5 -140.5v-333h-163v300q0 42 -20.5 66.5t-59.5 24.5q-41 0 -65.5 -30t-24.5 -78v-283h-163z" />
    <glyph glyph-name="i" unicode="i" horiz-adv-x="241" 
d="M39 0v512h163v-512h-163zM39 583v132h163v-132h-163z" />
    <glyph glyph-name="j" unicode="j" horiz-adv-x="241" 
d="M45 -172q-52 0 -92 8v113q27 0 38.5 1t25 6t18 16.5t4.5 31.5v508h163v-516q0 -87 -39 -128q-40 -40 -118 -40zM39 583v132h163v-132h-163z" />
    <glyph glyph-name="k" unicode="k" horiz-adv-x="560" 
d="M39 0v715h161v-376l152 173h188l-180 -192l201 -320h-189l-123 209l-49 -52v-157h-161z" />
    <glyph glyph-name="l" unicode="l" horiz-adv-x="245" 
d="M40 0v715h165v-715h-165z" />
    <glyph glyph-name="m" unicode="m" horiz-adv-x="869" 
d="M39 0v512h156v-73h3q53 88 155 88q101 0 144 -90h2q57 90 161 90q85 0 129.5 -52.5t44.5 -141.5v-333h-163v304q0 87 -72 87q-38 0 -59.5 -28.5t-21.5 -75.5v-287h-163v304q0 87 -72 87q-38 0 -59.5 -28.5t-21.5 -75.5v-287h-163z" />
    <glyph glyph-name="n" unicode="n" horiz-adv-x="570" 
d="M39 0v512h157v-70h3q59 85 158 85q83 0 130.5 -53.5t47.5 -140.5v-333h-163v300q0 42 -20.5 66.5t-59.5 24.5q-41 0 -65.5 -30t-24.5 -78v-283h-163z" />
    <glyph glyph-name="o" unicode="o" horiz-adv-x="579" 
d="M289 100q53 0 81 41.5t28 113.5t-28 114t-81 42t-80.5 -42t-27.5 -114t27.5 -113.5t80.5 -41.5zM290 -16q-122 0 -198 76.5t-76 194.5t76 194.5t198 76.5t197.5 -76.5t75.5 -194.5t-75.5 -194.5t-197.5 -76.5z" />
    <glyph glyph-name="p" unicode="p" horiz-adv-x="588" 
d="M39 -169v681h156v-62h3q57 77 155 77q100 0 159.5 -76t59.5 -195q0 -124 -61.5 -198t-161.5 -74q-94 0 -145 69h-2v-222h-163zM307 110q47 0 73.5 37t26.5 103q0 68 -25.5 107t-77.5 39t-79.5 -40t-27.5 -106q0 -64 29 -102t81 -38z" />
    <glyph glyph-name="q" unicode="q" horiz-adv-x="588" 
d="M387 -169v223h-3q-47 -70 -142 -70q-98 0 -160 74.5t-62 197.5q0 119 60 195t165 76q95 0 146 -80h3v65h155v-681h-162zM286 113q49 0 77.5 38t28.5 101q0 65 -27.5 106t-78.5 41q-101 0 -101 -147q0 -66 26.5 -102.5t74.5 -36.5z" />
    <glyph glyph-name="r" unicode="r" horiz-adv-x="383" 
d="M39 0v512h156v-80h3q27 46 60 67t80 21q24 0 32 -4v-140h-4q-76 11 -120 -26t-44 -120v-230h-163z" />
    <glyph glyph-name="s" unicode="s" horiz-adv-x="504" 
d="M257 -16q-113 0 -179 48.5t-70 133.5h154q10 -76 94 -76q37 0 58.5 13.5t21.5 37.5q0 10 -3.5 17.5t-11 13t-15 9.5t-21.5 7.5t-23.5 5.5t-27.5 5t-28 5q-42 8 -67.5 15.5t-56 24t-45.5 46.5t-15 73q0 78 63 121t158 43q107 0 166 -43.5t65 -120.5h-150q-5 33 -25.5 46.5
t-56.5 13.5q-32 0 -51.5 -12t-19.5 -35q0 -12 6.5 -20t26.5 -14t30 -8.5t43 -7.5q11 -2 17 -3q35 -6 56 -11t51 -17.5t47 -29t29.5 -45t12.5 -66.5q0 -82 -64.5 -126t-168.5 -44z" />
    <glyph glyph-name="t" unicode="t" horiz-adv-x="351" 
d="M242 -6q-78 0 -120.5 31.5t-42.5 109.5v275h-68v102h68v162h159v-162h93v-102h-93v-240q0 -28 14.5 -39t42.5 -11q9 0 21 0.5t15 0.5v-119q-30 -8 -89 -8z" />
    <glyph glyph-name="u" unicode="u" 
d="M215 -15q-87 0 -133.5 51.5t-46.5 139.5v336h162v-302q0 -87 77 -87q42 0 66 28.5t24 74.5v286h163v-512h-156v63h-3q-57 -78 -153 -78z" />
    <glyph glyph-name="v" unicode="v" horiz-adv-x="524" 
d="M174 0l-177 512h168l70 -231q4 -15 11 -39t9 -32q1 -5 3.5 -16t4.5 -16h2q2 5 4.5 16t3.5 16q8 31 20 71l71 231h163l-177 -512h-176z" />
    <glyph glyph-name="w" unicode="w" horiz-adv-x="783" 
d="M155 0l-157 512h166l56 -212q1 -6 7.5 -29.5t8.5 -35.5q3 -12 7 -34h2l7 35q8 42 16 67l54 209h138l56 -209q7 -31 16 -68q1 -5 3.5 -17t4.5 -18h2q2 6 4.5 18t3.5 17q2 7 4.5 20t5.5 24.5t6 20.5l57 212h161l-157 -512h-153l-60 232q-5 15 -15 61q-3 11 -7 31h-2
q-4 -20 -7 -31q-2 -11 -8 -32.5t-8 -28.5l-61 -232h-151z" />
    <glyph glyph-name="x" unicode="x" horiz-adv-x="560" 
d="M7 0l178 269l-161 243h186l76 -132h2l72 132h171l-152 -241l174 -271h-189l-84 153h-2l-93 -153h-178z" />
    <glyph glyph-name="y" unicode="y" horiz-adv-x="529" 
d="M56 -169v127h56q67 0 67 54q0 25 -31 106l-151 394h172l69 -218q4 -14 11.5 -41t10.5 -37q1 -7 5 -20.5t5 -19.5h2q2 6 5 19.5t4 20.5q8 39 21 78l67 218h163l-177 -519q-30 -90 -73 -126t-120 -36h-106z" />
    <glyph glyph-name="z" unicode="z" horiz-adv-x="505" 
d="M24 0v121l203 219l27 27q5 6 17 18v3q-9 -1 -26 -1h-37h-160v124h420v-119l-194 -211l-32 -32q-3 -3 -9.5 -10t-10.5 -11v-3h29q9 0 25 0.5t22 0.5h185v-126h-459z" />
    <glyph glyph-name="braceleft" unicode="{" horiz-adv-x="398" 
d="M365 -138h-25q-122 0 -176.5 42t-54.5 152v118q0 38 -19 55.5t-65 19.5v120q46 2 65 20t19 55v118q0 110 54 151t177 41h25v-125h-18q-47 0 -65.5 -13t-18.5 -54v-143q0 -48 -15.5 -71t-49.5 -37v-3q34 -13 49.5 -36.5t15.5 -70.5v-146q0 -40 19 -54t65 -14h18v-125z" />
    <glyph glyph-name="bar" unicode="|" horiz-adv-x="214" 
d="M58 -138v892h99v-892h-99z" />
    <glyph glyph-name="braceright" unicode="}" horiz-adv-x="398" 
d="M34 -138v125h18q46 0 65 13t19 54v146q0 47 15 70.5t50 36.5v3q-35 15 -50 37.5t-15 70.5v143q0 40 -19.5 54t-64.5 14h-18v125h25q122 0 176.5 -41.5t54.5 -151.5v-117q0 -37 19 -55t64 -20v-120q-45 -2 -64 -20t-19 -55v-119q0 -110 -54.5 -151.5t-176.5 -41.5h-25z
" />
    <glyph glyph-name="asciitilde" unicode="~" horiz-adv-x="443" 
d="M126 239h-102q0 86 35.5 130.5t89.5 44.5q34 0 80 -21q44 -21 59 -21q18 0 26 10t10 32h102q0 -82 -30 -126t-88 -44q-41 0 -82 19q-45 21 -63 21q-33 0 -37 -45z" />
    <glyph glyph-name="uni00A0" unicode="&#xa0;" horiz-adv-x="155" 
 />
    <glyph glyph-name="exclamdown" unicode="&#xa1;" horiz-adv-x="264" 
d="M48 -127v170l42 312h84l42 -312v-170h-168zM47 420v168h170v-168h-170z" />
    <glyph glyph-name="cent" unicode="&#xa2;" horiz-adv-x="544" 
d="M251 -107v93q-107 12 -171 86t-64 183t64 184t171 85v70h61v-69q89 -9 144.5 -61t66.5 -134h-152q-13 56 -59 72v-294q55 16 64 86h151q-4 -84 -62 -142.5t-153 -66.5v-92h-61zM251 109v293q-75 -24 -75 -147q0 -122 75 -146z" />
    <glyph glyph-name="sterling" unicode="&#xa3;" horiz-adv-x="591" 
d="M420 -15q-53 0 -113.5 24.5t-96.5 24.5q-46 0 -106 -44l-81 123q95 61 95 136q0 18 -5 40h-85v93h40q-28 51 -28 104q0 94 69.5 153.5t195.5 59.5q117 0 187 -56q77 -62 81 -194h-162q-1 118 -103 118q-44 0 -67.5 -23.5t-23.5 -62.5q0 -35 32 -99h135v-93h-105
q1 -5 1 -16q0 -68 -75 -123l2 -3q38 15 72 15q38 0 75.5 -12.5t62.5 -12.5q48 0 92 40l69 -131q-68 -61 -158 -61z" />
    <glyph glyph-name="currency" unicode="&#xa4;" horiz-adv-x="512" 
d="M98 98l-84 82l64 64q-25 46 -25 105q0 58 25 104l-64 66l84 82l65 -68q43 20 93 20q49 0 92 -20l66 68l84 -82l-66 -66q26 -47 26 -104q0 -58 -25 -104l65 -65l-84 -82l-66 67q-42 -19 -92 -19q-54 0 -92 19zM256 238q41 0 63.5 29.5t22.5 81.5t-22.5 82t-63.5 30
q-42 0 -65.5 -30t-23.5 -82t23.5 -81.5t65.5 -29.5z" />
    <glyph glyph-name="yen" unicode="&#xa5;" horiz-adv-x="646" 
d="M240 0v128h-169v64h169v57h-169v65h143l-213 372h187l91 -175q22 -46 30 -65q3 -6 7 -16.5t6 -14.5h2l4.5 9t5 11.5t4.5 10.5q8 19 30 65l90 175h183l-214 -372h144v-65h-168v-57h168v-64h-168v-128h-163z" />
    <glyph glyph-name="brokenbar" unicode="&#xa6;" horiz-adv-x="214" 
d="M58 -138v383h99v-383h-99zM58 384v370h99v-370h-99z" />
    <glyph glyph-name="section" unicode="&#xa7;" horiz-adv-x="625" 
d="M327 -181q-114 0 -180 55.5t-69 152.5h149q1 -40 25 -62t68 -22q34 0 54 16.5t20 41.5q0 10 -3 18t-11 15t-16 12.5t-25 12.5t-29.5 11.5t-38 14t-44.5 16.5q-103 40 -150.5 82t-47.5 114q0 52 31 88.5t87 52.5q-25 22 -37 46t-12 63q0 75 61 121t157 46q102 0 163 -49.5
t66 -141.5h-141q-7 72 -81 72q-34 0 -51 -13.5t-17 -35.5q0 -24 22 -37.5t89 -39.5q23 -9 35 -14q48 -20 76 -33.5t60.5 -36.5t47.5 -52.5t15 -66.5q0 -106 -111 -139q64 -48 64 -126q0 -86 -62.5 -134t-163.5 -48zM305 230l90 -40q52 13 52 51q0 34 -110 78q-9 4 -14 6
q-6 2 -44 17.5t-55 24.5q-47 -12 -47 -50q0 -21 21 -34.5t89 -44.5q12 -5 18 -8z" />
    <glyph glyph-name="dieresis" unicode="&#xa8;" horiz-adv-x="500" 
d="M61 577v128h153v-128h-153zM286 577v128h153v-128h-153z" />
    <glyph glyph-name="copyright" unicode="&#xa9;" horiz-adv-x="817" 
d="M412 135q-96 0 -155.5 63.5t-59.5 160.5q0 98 60 161.5t156 63.5q72 0 126 -39q58 -43 66 -123h-120q-13 58 -73 58q-43 0 -66 -33.5t-23 -87.5t24.5 -87.5t66.5 -33.5q32 0 52 18t23 46h121q-6 -71 -55 -117q-52 -50 -143 -50zM409 35q131 0 219 91.5t88 228.5
q0 138 -88 229.5t-219 91.5q-132 0 -220 -91.5t-88 -229.5q0 -137 88 -228.5t220 -91.5zM409 -17q-156 0 -262.5 106.5t-106.5 265.5t107 266t262 107t261.5 -106.5t106.5 -266.5q0 -159 -106.5 -265.5t-261.5 -106.5z" />
    <glyph glyph-name="ordfeminine" unicode="&#xaa;" horiz-adv-x="510" 
d="M182 226q-69 0 -113 36t-44 101q0 69 45 99.5t130 41.5q66 8 90.5 18.5t24.5 31.5q0 47 -60 47q-67 0 -73 -57h-137q2 67 56.5 111t151.5 44q100 0 149 -37q59 -41 59 -128v-227q0 -54 16 -64v-7h-144q-11 17 -15 50h-2q-44 -60 -134 -60zM227 318q40 0 66 21.5t26 57.5
v54q-20 -12 -75 -24q-43 -9 -60 -22t-17 -37q0 -50 60 -50z" />
    <glyph glyph-name="guillemotleft" unicode="&#xab;" horiz-adv-x="440" 
d="M198 42l-154 132v156l154 131v-142l-81 -68v-2l81 -67v-140zM389 42l-151 132v156l151 131v-142l-79 -68v-2l79 -67v-140z" />
    <glyph glyph-name="logicalnot" unicode="&#xac;" horiz-adv-x="524" 
d="M330 134v165h-290v131h429v-296h-139z" />
    <glyph glyph-name="uni00AD" unicode="&#xad;" horiz-adv-x="335" 
d="M32 181v140h272v-140h-272z" />
    <glyph glyph-name="registered" unicode="&#xae;" horiz-adv-x="531" 
d="M160 360v256h126q41 0 69 -20t28 -56q0 -46 -43 -61v-2q29 -9 37 -44q2 -11 3 -29t2.5 -27t6.5 -11v-6h-74q-3 2 -5 10.5t-3.5 24.5t-2.5 24q-4 31 -37 31h-31v-90h-76zM236 503h38q34 0 34 27t-34 27h-38v-54zM266 283q83 0 138 58t55 145q0 86 -55 144t-138 58
q-84 0 -139 -57.5t-55 -144.5t55 -145t139 -58zM266 244q-101 0 -170.5 69t-69.5 173t69.5 173t170.5 69q100 0 169.5 -69t69.5 -173t-69.5 -173t-169.5 -69z" />
    <glyph glyph-name="macron" unicode="&#xaf;" horiz-adv-x="500" 
d="M110 587v101h286v-101h-286z" />
    <glyph glyph-name="degree" unicode="&#xb0;" horiz-adv-x="375" 
d="M188 478q31 0 49.5 20.5t18.5 50.5q0 31 -18.5 52t-49.5 21t-49.5 -21t-18.5 -52q0 -30 18.5 -50.5t49.5 -20.5zM188 400q-64 0 -110 43t-46 106t46 107t110 44q63 0 109.5 -44t46.5 -107q0 -62 -46 -105.5t-110 -43.5z" />
    <glyph glyph-name="plusminus" unicode="&#xb1;" 
d="M215 168v141h-175v130h175v140h136v-140h175v-130h-175v-141h-136zM40 0v124h486v-124h-486z" />
    <glyph glyph-name="twosuperior" unicode="&#xb2;" horiz-adv-x="396" 
d="M363 318h-336q1 87 74 146q24 21 68.5 48.5t47.5 29.5q30 24 30 49q0 42 -46 42q-27 0 -42.5 -18t-15.5 -51h-110q0 76 46.5 117.5t124.5 41.5q73 0 115.5 -36.5t42.5 -89.5q0 -62 -54 -108q-19 -17 -63 -41.5t-56 -37.5v-1h174v-91z" />
    <glyph glyph-name="threesuperior" unicode="&#xb3;" horiz-adv-x="390" 
d="M201 309q-88 0 -133.5 39t-46.5 105h113q5 -60 62 -60q26 0 40 12.5t14 33.5q0 46 -63 46h-23v76h20q58 0 58 41q0 39 -46 39q-47 0 -53 -50h-110q2 59 46.5 95.5t121.5 36.5q70 0 113 -30.5t43 -83.5q0 -51 -58 -77v-1q70 -26 70 -97q0 -62 -47 -93.5t-121 -31.5z" />
    <glyph glyph-name="acute" unicode="&#xb4;" horiz-adv-x="500" 
d="M171 572l57 148h188l-121 -148h-124z" />
    <glyph glyph-name="mu" unicode="&#xb5;" horiz-adv-x="570" 
d="M39 -169v681h162v-303q0 -87 77 -87q42 0 66 28t24 75v287h163v-512h-156v63h-3q-46 -76 -121 -76q-29 0 -50 15h-2v-171h-160z" />
    <glyph glyph-name="paragraph" unicode="&#xb6;" horiz-adv-x="603" 
d="M278 0v335h-62q-86 0 -137.5 52t-51.5 135q0 89 57 143q55 50 152 50h313v-715h-103v619h-64v-619h-104z" />
    <glyph glyph-name="periodcentered" unicode="&#xb7;" horiz-adv-x="235" 
d="M32 234v168h171v-168h-171z" />
    <glyph glyph-name="cedilla" unicode="&#xb8;" horiz-adv-x="500" 
d="M227 -193q-64 0 -112 29l20 35q32 -15 69 -15q54 0 54 29q0 27 -38 27q-16 0 -35 -7l-17 24l71 71h63l-56 -47v-2q45 6 75.5 -12t30.5 -55q0 -35 -35 -56t-90 -21z" />
    <glyph glyph-name="onesuperior" unicode="&#xb9;" horiz-adv-x="272" 
d="M111 318v234h-91v81q100 5 116 86h96v-401h-121z" />
    <glyph glyph-name="ordmasculine" unicode="&#xba;" horiz-adv-x="521" 
d="M260 326q45 0 69 36.5t24 98.5t-24 98.5t-69 36.5t-68.5 -36.5t-23.5 -98.5t23.5 -98.5t68.5 -36.5zM261 223q-109 0 -176 67.5t-67 170.5t67 170.5t176 67.5q108 0 175 -67.5t67 -170.5t-67 -170.5t-175 -67.5z" />
    <glyph glyph-name="guillemotright" unicode="&#xbb;" horiz-adv-x="440" 
d="M51 42v142l79 68v2l-79 67v140l151 -132v-156zM242 42v142l81 68v2l-81 67v140l154 -132v-156z" />
    <glyph glyph-name="onequarter" unicode="&#xbc;" horiz-adv-x="816" 
d="M615 402h117v-236h58v-83h-58v-83h-117v83h-191v95zM615 288h-1l-103 -121v-1h104v122zM114 318v234h-91v81q100 5 116 86h96v-401h-121zM76 0l544 715h102l-545 -715h-101z" />
    <glyph glyph-name="onehalf" unicode="&#xbd;" horiz-adv-x="851" 
d="M815 0h-336q1 87 74 146q22 19 62 43.5t51 32.5q33 24 33 51q0 42 -46 42q-27 0 -42.5 -18t-15.5 -51h-110q0 76 46.5 117.5t124.5 41.5q73 0 115.5 -36.5t42.5 -89.5q0 -62 -54 -108q-19 -17 -63 -41.5t-56 -37.5v-1h174v-91zM114 318v234h-91v81q100 5 116 86h96v-401
h-121zM70 0l544 715h102l-545 -715h-101z" />
    <glyph glyph-name="threequarters" unicode="&#xbe;" horiz-adv-x="883" 
d="M204 309q-88 0 -133.5 39t-46.5 105h113q5 -60 62 -60q26 0 40 12.5t14 33.5q0 46 -63 46h-23v76h20q58 0 58 41q0 39 -46 39q-47 0 -53 -50h-110q2 59 46.5 95.5t121.5 36.5q70 0 113 -30.5t43 -83.5q0 -51 -58 -77v-1q70 -26 70 -97q0 -62 -47 -93.5t-121 -31.5z
M683 402h117v-236h58v-83h-58v-83h-117v83h-191v95zM683 288h-1l-103 -121v-1h104v122zM153 0l544 715h102l-545 -715h-101z" />
    <glyph glyph-name="questiondown" unicode="&#xbf;" horiz-adv-x="547" 
d="M267 -140q-112 0 -181 56.5t-69 148.5q0 62 25.5 97.5t69.5 64.5l27.5 17.5t24 15.5t16.5 12t15 14q19 24 19 69h145q0 -72 -14.5 -103.5t-54.5 -64.5q-11 -10 -43 -32t-45 -39.5t-13 -45.5q0 -34 24 -54.5t61 -20.5q45 0 72.5 28t28.5 76h160q-2 -108 -73.5 -173.5
t-194.5 -65.5zM204 420v168h170v-168h-170z" />
    <glyph glyph-name="Agrave" unicode="&#xc0;" horiz-adv-x="697" 
d="M-1 0l257 715h182l258 -715h-186l-42 129h-250l-41 -129h-178zM259 256h168l-54 173q-11 29 -19 64q-6 24 -9 37h-2q-2 -7 -5.5 -19.5t-4.5 -17.5q-3 -9 -9 -31.5t-10 -32.5zM295 750l-106 130h187l43 -130h-124z" />
    <glyph glyph-name="Aacute" unicode="&#xc1;" horiz-adv-x="697" 
d="M-1 0l257 715h182l258 -715h-186l-42 129h-250l-41 -129h-178zM259 256h168l-54 173q-11 29 -19 64q-6 24 -9 37h-2q-2 -7 -5.5 -19.5t-4.5 -17.5q-3 -9 -9 -31.5t-10 -32.5zM281 750l43 130h187l-106 -130h-124z" />
    <glyph glyph-name="Acircumflex" unicode="&#xc2;" horiz-adv-x="697" 
d="M-1 0l257 715h182l258 -715h-186l-42 129h-250l-41 -129h-178zM259 256h168l-54 173q-11 29 -19 64q-6 24 -9 37h-2q-2 -7 -5.5 -19.5t-4.5 -17.5q-3 -9 -9 -31.5t-10 -32.5zM162 750l107 125h156l107 -125h-137l-45 54h-2l-46 -54h-140z" />
    <glyph glyph-name="Atilde" unicode="&#xc3;" horiz-adv-x="697" 
d="M-1 0l257 715h182l258 -715h-186l-42 129h-250l-41 -129h-178zM259 256h168l-54 173q-11 29 -19 64q-6 24 -9 37h-2q-2 -7 -5.5 -19.5t-4.5 -17.5q-3 -9 -9 -31.5t-10 -32.5zM264 751h-84q0 65 29 100t74 35q33 0 66 -19q38 -18 49 -18q25 0 30 35h84q0 -61 -26 -96.5
t-74 -35.5q-28 0 -66 16q-41 19 -52 19q-26 0 -30 -36z" />
    <glyph glyph-name="Adieresis" unicode="&#xc4;" horiz-adv-x="697" 
d="M-1 0l257 715h182l258 -715h-186l-42 129h-250l-41 -129h-178zM259 256h168l-54 173q-11 29 -19 64q-6 24 -9 37h-2q-2 -7 -5.5 -19.5t-4.5 -17.5q-3 -9 -9 -31.5t-10 -32.5zM163 753v128h153v-128h-153zM378 753v128h153v-128h-153z" />
    <glyph glyph-name="Aring" unicode="&#xc5;" horiz-adv-x="697" 
d="M-1 0l257 715h182l258 -715h-186l-42 129h-250l-41 -129h-178zM259 256h168l-54 173q-11 29 -19 64q-6 24 -9 37h-2q-2 -7 -5.5 -19.5t-4.5 -17.5q-3 -9 -9 -31.5t-10 -32.5zM347 794q18 0 30 12.5t12 30.5t-12 30.5t-30 12.5t-29.5 -12.5t-11.5 -30.5t11.5 -30.5
t29.5 -12.5zM347 739q-42 0 -72 28t-30 70q0 41 30 69.5t72 28.5t72 -28.5t30 -69.5q0 -42 -30 -70t-72 -28z" />
    <glyph glyph-name="AE" unicode="&#xc6;" horiz-adv-x="995" 
d="M-1 0l242 715h714v-147h-345v-129h293v-137h-293v-147h356v-155h-535v126h-216l-41 -126h-175zM255 249h176v319h-73z" />
    <glyph glyph-name="Ccedilla" unicode="&#xc7;" horiz-adv-x="702" 
d="M340 -193q-64 0 -112 29l20 35q32 -15 69 -15q54 0 54 29q0 27 -38 27q-16 0 -35 -7l-17 24l56 57q-142 12 -229.5 114.5t-87.5 254.5q0 162 97 268t255 106q122 0 204 -63q93 -69 107 -197h-177q-7 49 -43 81t-92 32q-84 0 -127.5 -62t-43.5 -165q0 -100 47 -163
t125 -63q59 0 96 33t43 86h177q-7 -108 -86 -183q-77 -74 -206 -80l-37 -32v-2q45 6 75.5 -12t30.5 -55q0 -35 -35 -56t-90 -21z" />
    <glyph glyph-name="Egrave" unicode="&#xc8;" horiz-adv-x="628" 
d="M277 750l-106 130h187l43 -130h-124zM49 0v715h542v-146h-365v-128h313v-138h-313v-153h371v-150h-548z" />
    <glyph glyph-name="Eacute" unicode="&#xc9;" horiz-adv-x="628" 
d="M263 750l43 130h187l-106 -130h-124zM49 0v715h542v-146h-365v-128h313v-138h-313v-153h371v-150h-548z" />
    <glyph glyph-name="Ecircumflex" unicode="&#xca;" horiz-adv-x="628" 
d="M49 0v715h542v-146h-365v-128h313v-138h-313v-153h371v-150h-548zM144 750l107 125h156l107 -125h-137l-45 54h-2l-46 -54h-140z" />
    <glyph glyph-name="Edieresis" unicode="&#xcb;" horiz-adv-x="628" 
d="M145 753v128h153v-128h-153zM360 753v128h153v-128h-153zM49 0v715h542v-146h-365v-128h313v-138h-313v-153h371v-150h-548z" />
    <glyph glyph-name="Igrave" unicode="&#xcc;" horiz-adv-x="276" 
d="M50 0v715h177v-715h-177zM86 750l-106 130h187l43 -130h-124z" />
    <glyph glyph-name="Iacute" unicode="&#xcd;" horiz-adv-x="276" 
d="M50 0v715h177v-715h-177zM72 750l43 130h187l-106 -130h-124z" />
    <glyph glyph-name="Icircumflex" unicode="&#xce;" horiz-adv-x="276" 
d="M50 0v715h177v-715h-177zM-47 750l107 125h156l107 -125h-137l-45 54h-2l-46 -54h-140z" />
    <glyph glyph-name="Idieresis" unicode="&#xcf;" horiz-adv-x="276" 
d="M50 0v715h177v-715h-177zM-46 753v128h153v-128h-153zM169 753v128h153v-128h-153z" />
    <glyph glyph-name="Eth" unicode="&#xd0;" horiz-adv-x="714" 
d="M235 149h104q87 0 131.5 52t44.5 152q0 99 -45.5 156.5t-128.5 57.5h-106v-134h156v-137h-156v-147zM58 0v296h-55v137h55v282h305q148 0 239.5 -99t91.5 -263q0 -176 -105 -272q-89 -81 -237 -81h-294z" />
    <glyph glyph-name="Ntilde" unicode="&#xd1;" horiz-adv-x="710" 
d="M273 751h-84q0 65 29 100t74 35q33 0 66 -19q38 -18 49 -18q25 0 30 35h84q0 -61 -26 -96.5t-74 -35.5q-28 0 -66 16q-41 19 -52 19q-25 0 -30 -36zM49 0v715h178l212 -359q1 -2 29 -53q4 -7 11 -20.5t9 -17.5h2q-1 16 -1 46q-1 25 -1 65v339h173v-715h-178l-210 354
q-10 12 -30 55q-14 26 -21 41h-2q0 -34 1 -49q0 -15 0.5 -39.5t0.5 -28.5v-333h-173z" />
    <glyph glyph-name="Ograve" unicode="&#xd2;" horiz-adv-x="747" 
d="M321 750l-106 130h187l43 -130h-124zM374 127q84 0 128.5 63.5t44.5 165.5q0 103 -44.5 166.5t-128.5 63.5q-83 0 -128.5 -64t-45.5 -166t45 -165.5t129 -63.5zM373 -17q-160 0 -256.5 105t-96.5 268t96.5 268t256.5 105t257 -105t97 -268t-97 -268t-257 -105z" />
    <glyph glyph-name="Oacute" unicode="&#xd3;" horiz-adv-x="747" 
d="M307 750l43 130h187l-106 -130h-124zM374 127q84 0 128.5 63.5t44.5 165.5q0 103 -44.5 166.5t-128.5 63.5q-83 0 -128.5 -64t-45.5 -166t45 -165.5t129 -63.5zM373 -17q-160 0 -256.5 105t-96.5 268t96.5 268t256.5 105t257 -105t97 -268t-97 -268t-257 -105z" />
    <glyph glyph-name="Ocircumflex" unicode="&#xd4;" horiz-adv-x="747" 
d="M374 127q84 0 128.5 63.5t44.5 165.5q0 103 -44.5 166.5t-128.5 63.5q-83 0 -128.5 -64t-45.5 -166t45 -165.5t129 -63.5zM373 -17q-160 0 -256.5 105t-96.5 268t96.5 268t256.5 105t257 -105t97 -268t-97 -268t-257 -105zM188 750l107 125h156l107 -125h-137l-45 54h-2
l-46 -54h-140z" />
    <glyph glyph-name="Otilde" unicode="&#xd5;" horiz-adv-x="747" 
d="M296 751h-84q0 65 29 100t74 35q33 0 66 -19q38 -18 49 -18q25 0 30 35h84q0 -61 -26 -96.5t-74 -35.5q-28 0 -66 16q-41 19 -52 19q-26 0 -30 -36zM373 -17q-160 0 -256.5 105t-96.5 268t96.5 268t256.5 105t257 -105t97 -268t-97 -268t-257 -105zM374 127
q84 0 128.5 63.5t44.5 165.5q0 103 -44.5 166.5t-128.5 63.5q-83 0 -128.5 -64t-45.5 -166t45 -165.5t129 -63.5z" />
    <glyph glyph-name="Odieresis" unicode="&#xd6;" horiz-adv-x="747" 
d="M189 753v128h153v-128h-153zM404 753v128h153v-128h-153zM374 127q84 0 128.5 63.5t44.5 165.5q0 103 -44.5 166.5t-128.5 63.5q-83 0 -128.5 -64t-45.5 -166t45 -165.5t129 -63.5zM373 -17q-160 0 -256.5 105t-96.5 268t96.5 268t256.5 105t257 -105t97 -268t-97 -268
t-257 -105z" />
    <glyph glyph-name="multiply" unicode="&#xd7;" 
d="M132 82l-93 89l152 155l-151 155l93 88l147 -151l149 151l92 -88l-151 -155l151 -154l-92 -89l-148 152z" />
    <glyph glyph-name="Oslash" unicode="&#xd8;" horiz-adv-x="747" 
d="M77 -35l-55 50l80 90q-82 101 -82 251q0 163 96.5 268t256.5 105q129 0 220 -72l76 85l56 -49l-79 -88q81 -101 81 -249q0 -163 -97 -268t-257 -105q-124 0 -218 70zM220 237l268 302q-45 47 -114 47q-83 0 -128.5 -64t-45.5 -166q0 -72 20 -119zM374 127
q84 0 128.5 63.5t44.5 165.5q0 65 -19 116l-267 -300q43 -45 113 -45z" />
    <glyph glyph-name="Ugrave" unicode="&#xd9;" horiz-adv-x="686" 
d="M290 750l-106 130h187l43 -130h-124zM344 -13q-149 0 -224.5 68.5t-75.5 196.5v463h177v-469q0 -117 123 -117q60 0 90.5 32.5t30.5 87.5v466h177v-463q0 -126 -75.5 -195.5t-222.5 -69.5z" />
    <glyph glyph-name="Uacute" unicode="&#xda;" horiz-adv-x="686" 
d="M276 750l43 130h187l-106 -130h-124zM344 -13q-149 0 -224.5 68.5t-75.5 196.5v463h177v-469q0 -117 123 -117q60 0 90.5 32.5t30.5 87.5v466h177v-463q0 -126 -75.5 -195.5t-222.5 -69.5z" />
    <glyph glyph-name="Ucircumflex" unicode="&#xdb;" horiz-adv-x="686" 
d="M344 -13q-149 0 -224.5 68.5t-75.5 196.5v463h177v-469q0 -117 123 -117q60 0 90.5 32.5t30.5 87.5v466h177v-463q0 -126 -75.5 -195.5t-222.5 -69.5zM157 750l107 125h156l107 -125h-137l-45 54h-2l-46 -54h-140z" />
    <glyph glyph-name="Udieresis" unicode="&#xdc;" horiz-adv-x="686" 
d="M158 753v128h153v-128h-153zM373 753v128h153v-128h-153zM344 -13q-149 0 -224.5 68.5t-75.5 196.5v463h177v-469q0 -117 123 -117q60 0 90.5 32.5t30.5 87.5v466h177v-463q0 -126 -75.5 -195.5t-222.5 -69.5z" />
    <glyph glyph-name="Yacute" unicode="&#xdd;" horiz-adv-x="663" 
d="M243 0v264l-242 451h193l92 -185q7 -14 32 -73l15 -36h2l15 36q9 20 34 73l91 185h187l-242 -451v-264h-177zM267 750l43 130h187l-106 -130h-124z" />
    <glyph glyph-name="Thorn" unicode="&#xde;" horiz-adv-x="650" 
d="M49 0v715h180v-99h142q128 -2 195 -67q72 -66 72 -176q0 -103 -66 -168.5t-176 -65.5h-167v-139h-180zM229 279h131q47 0 73.5 26t26.5 69q0 44 -26 68t-74 24h-131v-187z" />
    <glyph glyph-name="germandbls" unicode="&#xdf;" horiz-adv-x="576" 
d="M331 -9q-46 0 -76 10v118q144 -17 144 119q0 117 -115 117h-27v93h21q93 5 93 81q0 35 -21 56t-58 21q-42 0 -66 -24.5t-24 -71.5v-510h-163v514q0 100 67 157.5t183 57.5q107 0 170.5 -51t63.5 -137q0 -93 -88 -129v-3q61 -20 93 -68t32 -117q0 -113 -63 -173t-166 -60z
" />
    <glyph glyph-name="agrave" unicode="&#xe0;" horiz-adv-x="541" 
d="M190 -13q-79 0 -127 41t-48 115q0 78 52.5 114t143.5 47q75 9 102.5 20.5t27.5 36.5q0 55 -70 55q-75 0 -83 -66h-150q2 76 62 126t170 50t166 -42q65 -47 65 -146v-258q0 -62 18 -73v-7h-158q-11 15 -17 57h-2q-50 -70 -152 -70zM242 91q46 0 74.5 25t28.5 67v61
q-24 -12 -84 -27q-49 -12 -69 -26.5t-20 -42.5q0 -57 70 -57zM223 572l-121 148h188l57 -148h-124z" />
    <glyph glyph-name="aacute" unicode="&#xe1;" horiz-adv-x="541" 
d="M190 -13q-79 0 -127 41t-48 115q0 78 52.5 114t143.5 47q75 9 102.5 20.5t27.5 36.5q0 55 -70 55q-75 0 -83 -66h-150q2 76 62 126t170 50t166 -42q65 -47 65 -146v-258q0 -62 18 -73v-7h-158q-11 15 -17 57h-2q-50 -70 -152 -70zM242 91q46 0 74.5 25t28.5 67v61
q-24 -12 -84 -27q-49 -12 -69 -26.5t-20 -42.5q0 -57 70 -57zM209 572l57 148h188l-121 -148h-124z" />
    <glyph glyph-name="acircumflex" unicode="&#xe2;" horiz-adv-x="541" 
d="M190 -13q-79 0 -127 41t-48 115q0 78 52.5 114t143.5 47q75 9 102.5 20.5t27.5 36.5q0 55 -70 55q-75 0 -83 -66h-150q2 76 62 126t170 50t166 -42q65 -47 65 -146v-258q0 -62 18 -73v-7h-158q-11 15 -17 57h-2q-50 -70 -152 -70zM242 91q46 0 74.5 25t28.5 67v61
q-24 -12 -84 -27q-49 -12 -69 -26.5t-20 -42.5q0 -57 70 -57zM90 574l107 137h156l107 -137h-137l-45 66h-2l-46 -66h-140z" />
    <glyph glyph-name="atilde" unicode="&#xe3;" horiz-adv-x="541" 
d="M190 -13q-79 0 -127 41t-48 115q0 78 52.5 114t143.5 47q75 9 102.5 20.5t27.5 36.5q0 55 -70 55q-75 0 -83 -66h-150q2 76 62 126t170 50t166 -42q65 -47 65 -146v-258q0 -62 18 -73v-7h-158q-11 15 -17 57h-2q-50 -70 -152 -70zM242 91q46 0 74.5 25t28.5 67v61
q-24 -12 -84 -27q-49 -12 -69 -26.5t-20 -42.5q0 -57 70 -57zM193 571h-84q0 65 29 100t74 35q33 0 66 -19q38 -18 49 -18q25 0 30 35h84q0 -61 -26 -96.5t-74 -35.5q-28 0 -66 16q-41 19 -52 19q-25 0 -30 -36z" />
    <glyph glyph-name="adieresis" unicode="&#xe4;" horiz-adv-x="541" 
d="M190 -13q-79 0 -127 41t-48 115q0 78 52.5 114t143.5 47q75 9 102.5 20.5t27.5 36.5q0 55 -70 55q-75 0 -83 -66h-150q2 76 62 126t170 50t166 -42q65 -47 65 -146v-258q0 -62 18 -73v-7h-158q-11 15 -17 57h-2q-50 -70 -152 -70zM242 91q46 0 74.5 25t28.5 67v61
q-24 -12 -84 -27q-49 -12 -69 -26.5t-20 -42.5q0 -57 70 -57zM86 577v128h153v-128h-153zM311 577v128h153v-128h-153z" />
    <glyph glyph-name="aring" unicode="&#xe5;" horiz-adv-x="541" 
d="M190 -13q-79 0 -127 41t-48 115q0 78 52.5 114t143.5 47q75 9 102.5 20.5t27.5 36.5q0 55 -70 55q-75 0 -83 -66h-150q2 76 62 126t170 50t166 -42q65 -47 65 -146v-258q0 -62 18 -73v-7h-158q-11 15 -17 57h-2q-50 -70 -152 -70zM242 91q46 0 74.5 25t28.5 67v61
q-24 -12 -84 -27q-49 -12 -69 -26.5t-20 -42.5q0 -57 70 -57zM275 614q18 0 30 12t12 30t-12 30.5t-30 12.5t-29.5 -12.5t-11.5 -30.5t11.5 -30t29.5 -12zM275 558q-42 0 -72 28.5t-30 69.5q0 42 30 70.5t72 28.5t72 -28.5t30 -70.5q0 -41 -30 -69.5t-72 -28.5z" />
    <glyph glyph-name="ae" unicode="&#xe6;" horiz-adv-x="885" 
d="M210 -14q-89 0 -142 41t-53 116q0 78 51.5 112.5t145.5 48.5q79 10 106 20.5t27 36.5q0 55 -72 55q-79 0 -85 -66h-150q2 76 62.5 126t171.5 50q122 0 171 -54q64 55 160 55q100 0 167 -56q100 -83 98 -257h-368q18 -112 116 -112q61 0 85 51h158q-18 -71 -81 -117
q-66 -51 -165 -51q-126 0 -197 82q-40 -43 -86.5 -62t-119.5 -19zM242 91q48 0 77.5 25t29.5 67v61q-24 -13 -87 -27q-52 -12 -72 -26t-20 -43q0 -57 72 -57zM606 411q-87 0 -105 -100h202q-5 46 -30.5 73t-66.5 27z" />
    <glyph glyph-name="ccedilla" unicode="&#xe7;" horiz-adv-x="544" 
d="M257 -193q-64 0 -112 29l20 35q32 -15 69 -15q54 0 54 29q0 27 -38 27q-16 0 -35 -7l-17 24l57 57q-108 10 -173.5 85t-65.5 184q0 118 73.5 194.5t194.5 76.5q103 0 167 -53.5t76 -142.5h-157q-18 76 -84 76q-52 0 -78.5 -40t-26.5 -111t26.5 -110t78.5 -39q79 0 89 88
h156q-4 -85 -62 -143t-155 -66l-38 -32v-2q45 6 75.5 -12t30.5 -55q0 -35 -35 -56t-90 -21z" />
    <glyph glyph-name="egrave" unicode="&#xe8;" horiz-adv-x="560" 
d="M289 -15q-125 0 -199 76.5t-74 195.5q0 116 73.5 193t189.5 77q105 0 175 -64q92 -84 90 -249h-368q18 -112 115 -112q61 0 85 51h159q-17 -74 -86 -121q-65 -47 -160 -47zM177 311h202q-5 46 -31 73t-66 27q-87 0 -105 -100zM228 572l-121 148h188l57 -148h-124z" />
    <glyph glyph-name="eacute" unicode="&#xe9;" horiz-adv-x="560" 
d="M214 572l57 148h188l-121 -148h-124zM289 -15q-125 0 -199 76.5t-74 195.5q0 116 73.5 193t189.5 77q105 0 175 -64q92 -84 90 -249h-368q18 -112 115 -112q61 0 85 51h159q-17 -74 -86 -121q-65 -47 -160 -47zM177 311h202q-5 46 -31 73t-66 27q-87 0 -105 -100z" />
    <glyph glyph-name="ecircumflex" unicode="&#xea;" horiz-adv-x="560" 
d="M95 574l107 137h156l107 -137h-137l-45 66h-2l-46 -66h-140zM289 -15q-125 0 -199 76.5t-74 195.5q0 116 73.5 193t189.5 77q105 0 175 -64q92 -84 90 -249h-368q18 -112 115 -112q61 0 85 51h159q-17 -74 -86 -121q-65 -47 -160 -47zM177 311h202q-5 46 -31 73t-66 27
q-87 0 -105 -100z" />
    <glyph glyph-name="edieresis" unicode="&#xeb;" horiz-adv-x="560" 
d="M91 577v128h153v-128h-153zM316 577v128h153v-128h-153zM289 -15q-125 0 -199 76.5t-74 195.5q0 116 73.5 193t189.5 77q105 0 175 -64q92 -84 90 -249h-368q18 -112 115 -112q61 0 85 51h159q-17 -74 -86 -121q-65 -47 -160 -47zM177 311h202q-5 46 -31 73t-66 27
q-87 0 -105 -100z" />
    <glyph glyph-name="igrave" unicode="&#xec;" horiz-adv-x="241" 
d="M39 0v512h163v-512h-163zM69 572l-121 148h188l57 -148h-124z" />
    <glyph glyph-name="iacute" unicode="&#xed;" horiz-adv-x="241" 
d="M55 572l57 148h188l-121 -148h-124zM39 0v512h163v-512h-163z" />
    <glyph glyph-name="icircumflex" unicode="&#xee;" horiz-adv-x="241" 
d="M39 0v512h163v-512h-163zM-42 574l81 137h164l79 -137h-129l-30 62h-2l-31 -62h-132z" />
    <glyph glyph-name="idieresis" unicode="&#xef;" horiz-adv-x="241" 
d="M-29 577v128h124v-128h-124zM147 577v128h123v-128h-123zM39 512h163v-512h-163v512z" />
    <glyph glyph-name="eth" unicode="&#xf0;" horiz-adv-x="579" 
d="M143 535l-23 53l109 36q-47 41 -119 91h204q33 -22 60 -43l98 32l24 -53l-74 -24q138 -143 138 -350q0 -59 -15 -110t-46 -93t-84.5 -66t-124.5 -24q-123 0 -198.5 76.5t-75.5 194.5q0 117 64.5 189t171.5 72q61 0 105 -42h2q-35 57 -82 105zM289 100q53 0 81 41.5
t28 112.5t-28 112t-81 41t-80.5 -41t-27.5 -112q0 -72 27.5 -113t80.5 -41z" />
    <glyph glyph-name="ntilde" unicode="&#xf1;" horiz-adv-x="570" 
d="M39 0v512h157v-70h3q59 85 158 85q83 0 130.5 -53.5t47.5 -140.5v-333h-163v300q0 42 -20.5 66.5t-59.5 24.5q-41 0 -65.5 -30t-24.5 -78v-283h-163zM208 571h-84q0 65 29 100t74 35q33 0 66 -19q38 -18 49 -18q25 0 30 35h84q0 -61 -26 -96.5t-74 -35.5q-28 0 -66 16
q-41 19 -52 19q-26 0 -30 -36z" />
    <glyph glyph-name="ograve" unicode="&#xf2;" horiz-adv-x="579" 
d="M289 100q53 0 81 41.5t28 113.5t-28 114t-81 42t-80.5 -42t-27.5 -114t27.5 -113.5t80.5 -41.5zM290 -16q-122 0 -198 76.5t-76 194.5t76 194.5t198 76.5t197.5 -76.5t75.5 -194.5t-75.5 -194.5t-197.5 -76.5zM238 572l-121 148h188l57 -148h-124z" />
    <glyph glyph-name="oacute" unicode="&#xf3;" horiz-adv-x="579" 
d="M224 572l57 148h188l-121 -148h-124zM289 100q53 0 81 41.5t28 113.5t-28 114t-81 42t-80.5 -42t-27.5 -114t27.5 -113.5t80.5 -41.5zM290 -16q-122 0 -198 76.5t-76 194.5t76 194.5t198 76.5t197.5 -76.5t75.5 -194.5t-75.5 -194.5t-197.5 -76.5z" />
    <glyph glyph-name="ocircumflex" unicode="&#xf4;" horiz-adv-x="579" 
d="M105 574l107 137h156l107 -137h-137l-45 66h-2l-46 -66h-140zM289 100q53 0 81 41.5t28 113.5t-28 114t-81 42t-80.5 -42t-27.5 -114t27.5 -113.5t80.5 -41.5zM290 -16q-122 0 -198 76.5t-76 194.5t76 194.5t198 76.5t197.5 -76.5t75.5 -194.5t-75.5 -194.5t-197.5 -76.5
z" />
    <glyph glyph-name="otilde" unicode="&#xf5;" horiz-adv-x="579" 
d="M289 100q53 0 81 41.5t28 113.5t-28 114t-81 42t-80.5 -42t-27.5 -114t27.5 -113.5t80.5 -41.5zM290 -16q-122 0 -198 76.5t-76 194.5t76 194.5t198 76.5t197.5 -76.5t75.5 -194.5t-75.5 -194.5t-197.5 -76.5zM208 571h-84q0 65 29 100t74 35q33 0 66 -19q38 -18 49 -18
q25 0 30 35h84q0 -61 -26 -96.5t-74 -35.5q-28 0 -66 16q-41 19 -52 19q-26 0 -30 -36z" />
    <glyph glyph-name="odieresis" unicode="&#xf6;" horiz-adv-x="579" 
d="M101 577v128h153v-128h-153zM326 577v128h153v-128h-153zM289 100q53 0 81 41.5t28 113.5t-28 114t-81 42t-80.5 -42t-27.5 -114t27.5 -113.5t80.5 -41.5zM290 -16q-122 0 -198 76.5t-76 194.5t76 194.5t198 76.5t197.5 -76.5t75.5 -194.5t-75.5 -194.5t-197.5 -76.5z
" />
    <glyph glyph-name="divide" unicode="&#xf7;" 
d="M197 59v149h171v-149h-171zM197 451v149h171v-149h-171zM526 264h-486v131h486v-131z" />
    <glyph glyph-name="oslash" unicode="&#xf8;" horiz-adv-x="579" 
d="M71 -36l-44 43l57 63q-68 74 -68 185q0 118 76 194.5t198 76.5q90 0 161 -47l58 64l44 -42l-56 -62q66 -74 66 -184q0 -118 -75.5 -194.5t-197.5 -76.5q-90 0 -160 46zM289 100q53 0 81 41.5t28 113.5q0 32 -8 64l-171 -190q26 -29 70 -29zM190 189l172 190
q-29 32 -73 32q-53 0 -80.5 -42t-27.5 -114q0 -37 9 -66z" />
    <glyph glyph-name="ugrave" unicode="&#xf9;" 
d="M215 -15q-87 0 -133.5 51.5t-46.5 139.5v336h162v-302q0 -87 77 -87q42 0 66 28.5t24 74.5v286h163v-512h-156v63h-3q-57 -78 -153 -78zM230 572l-121 148h188l57 -148h-124z" />
    <glyph glyph-name="uacute" unicode="&#xfa;" 
d="M216 572l57 148h188l-121 -148h-124zM215 -15q-87 0 -133.5 51.5t-46.5 139.5v336h162v-302q0 -87 77 -87q42 0 66 28.5t24 74.5v286h163v-512h-156v63h-3q-57 -78 -153 -78z" />
    <glyph glyph-name="ucircumflex" unicode="&#xfb;" 
d="M97 574l107 137h156l107 -137h-137l-45 66h-2l-46 -66h-140zM215 -15q-87 0 -133.5 51.5t-46.5 139.5v336h162v-302q0 -87 77 -87q42 0 66 28.5t24 74.5v286h163v-512h-156v63h-3q-57 -78 -153 -78z" />
    <glyph glyph-name="udieresis" unicode="&#xfc;" 
d="M93 577v128h153v-128h-153zM318 577v128h153v-128h-153zM215 -15q-87 0 -133.5 51.5t-46.5 139.5v336h162v-302q0 -87 77 -87q42 0 66 28.5t24 74.5v286h163v-512h-156v63h-3q-57 -78 -153 -78z" />
    <glyph glyph-name="yacute" unicode="&#xfd;" horiz-adv-x="529" 
d="M56 -169v127h56q67 0 67 54q0 25 -31 106l-151 394h172l69 -218q4 -14 11.5 -41t10.5 -37q1 -7 5 -20.5t5 -19.5h2q2 6 5 19.5t4 20.5q8 39 21 78l67 218h163l-177 -519q-30 -90 -73 -126t-120 -36h-106zM201 572l57 148h188l-121 -148h-124z" />
    <glyph glyph-name="thorn" unicode="&#xfe;" horiz-adv-x="588" 
d="M39 -169v885h163v-262h3q53 73 148 73q100 0 159.5 -76t59.5 -195q0 -124 -61.5 -198t-161.5 -74q-95 0 -145 69h-2v-222h-163zM307 110q47 0 73.5 37.5t26.5 104.5q0 69 -25.5 108.5t-77.5 39.5t-79.5 -41.5t-27.5 -106.5q0 -64 29 -103t81 -39z" />
    <glyph glyph-name="ydieresis" unicode="&#xff;" horiz-adv-x="529" 
d="M56 -169v127h56q67 0 67 54q0 25 -31 106l-151 394h172l69 -218q4 -14 11.5 -41t10.5 -37q1 -7 5 -20.5t5 -19.5h2q2 6 5 19.5t4 20.5q8 39 21 78l67 218h163l-177 -519q-30 -90 -73 -126t-120 -36h-106zM78 577v128h153v-128h-153zM303 577v128h153v-128h-153z" />
    <glyph glyph-name="Amacron" unicode="&#x100;" horiz-adv-x="697" 
d="M-1 0l257 715h182l258 -715h-186l-42 129h-250l-41 -129h-178zM259 256h168l-54 173q-11 29 -19 64q-6 24 -9 37h-2q-2 -7 -5.5 -19.5t-4.5 -17.5q-3 -9 -9 -31.5t-10 -32.5zM204 762v101h286v-101h-286z" />
    <glyph glyph-name="amacron" unicode="&#x101;" horiz-adv-x="541" 
d="M190 -13q-79 0 -127 41t-48 115q0 78 52.5 114t143.5 47q75 9 102.5 20.5t27.5 36.5q0 55 -70 55q-75 0 -83 -66h-150q2 76 62 126t170 50t166 -42q65 -47 65 -146v-258q0 -62 18 -73v-7h-158q-11 15 -17 57h-2q-50 -70 -152 -70zM242 91q46 0 74.5 25t28.5 67v61
q-24 -12 -84 -27q-49 -12 -69 -26.5t-20 -42.5q0 -57 70 -57zM132 587v101h286v-101h-286z" />
    <glyph glyph-name="Abreve" unicode="&#x102;" horiz-adv-x="697" 
d="M-1 0l257 715h182l258 -715h-186l-42 129h-250l-41 -129h-178zM259 256h168l-54 173q-11 29 -19 64q-6 24 -9 37h-2q-2 -7 -5.5 -19.5t-4.5 -17.5q-3 -9 -9 -31.5t-10 -32.5zM349 744q-69 0 -115 40t-48 105h92q5 -47 70 -47q29 0 48 13.5t21 33.5h92q-3 -64 -47 -104.5
t-113 -40.5z" />
    <glyph glyph-name="abreve" unicode="&#x103;" horiz-adv-x="541" 
d="M190 -13q-79 0 -127 41t-48 115q0 78 52.5 114t143.5 47q75 9 102.5 20.5t27.5 36.5q0 55 -70 55q-75 0 -83 -66h-150q2 76 62 126t170 50t166 -42q65 -47 65 -146v-258q0 -62 18 -73v-7h-158q-11 15 -17 57h-2q-50 -70 -152 -70zM242 91q46 0 74.5 25t28.5 67v61
q-24 -12 -84 -27q-49 -12 -69 -26.5t-20 -42.5q0 -57 70 -57zM277 566q-69 0 -115 40t-48 105h92q5 -47 70 -47q29 0 48 13.5t21 33.5h92q-3 -64 -47 -104.5t-113 -40.5z" />
    <glyph glyph-name="Aogonek" unicode="&#x104;" horiz-adv-x="697" 
d="M629 -177q-120 0 -120 86q0 54 60 91h-59l-42 129h-250l-41 -129h-178l257 715h182l256 -709q-62 -40 -62 -69q0 -25 32 -25q17 0 30 5h1v-85q-23 -9 -66 -9zM259 256h168l-54 173q-11 29 -19 64q-6 24 -9 37h-2q-2 -7 -5.5 -19.5t-4.5 -17.5q-3 -9 -9 -31.5t-10 -32.5z
" />
    <glyph glyph-name="aogonek" unicode="&#x105;" horiz-adv-x="541" 
d="M462 -177q-124 0 -124 84q0 60 70 93h-47q-11 15 -17 57h-2q-50 -70 -152 -70q-79 0 -127 41t-48 115q0 78 52.5 114t143.5 47q75 9 102.5 20.5t27.5 36.5q0 55 -70 55q-75 0 -83 -66h-150q2 76 62 126t170 50t166 -42q65 -47 65 -146v-258q0 -62 18 -73v-7
q-58 -31 -58 -63q0 -25 31 -25q17 0 30 5h1v-85q-23 -9 -61 -9zM242 91q46 0 74.5 25t28.5 67v61q-24 -12 -84 -27q-49 -12 -69 -26.5t-20 -42.5q0 -57 70 -57z" />
    <glyph glyph-name="Cacute" unicode="&#x106;" horiz-adv-x="702" 
d="M373 -16q-157 0 -255 105t-98 266q0 162 97 268t255 106q122 0 204 -63q93 -69 107 -197h-177q-7 49 -43 81t-92 32q-84 0 -127.5 -62t-43.5 -165q0 -100 47 -163t125 -63q59 0 96 33t43 86h177q-7 -108 -86 -183q-86 -81 -229 -81zM299 750l43 130h187l-106 -130h-124z
" />
    <glyph glyph-name="cacute" unicode="&#x107;" horiz-adv-x="544" 
d="M215 572l57 148h188l-121 -148h-124zM288 -16q-122 0 -197 76.5t-75 194.5t73.5 194.5t194.5 76.5q103 0 167 -53.5t76 -142.5h-157q-18 76 -84 76q-52 0 -78.5 -40t-26.5 -111t26.5 -110t78.5 -39q79 0 89 88h156q-4 -91 -70 -150.5t-173 -59.5z" />
    <glyph glyph-name="Ccircumflex" unicode="&#x108;" horiz-adv-x="702" 
d="M373 -16q-157 0 -255 105t-98 266q0 162 97 268t255 106q122 0 204 -63q93 -69 107 -197h-177q-7 49 -43 81t-92 32q-84 0 -127.5 -62t-43.5 -165q0 -100 47 -163t125 -63q59 0 96 33t43 86h177q-7 -108 -86 -183q-86 -81 -229 -81zM180 750l107 125h156l107 -125h-137
l-45 54h-2l-46 -54h-140z" />
    <glyph glyph-name="ccircumflex" unicode="&#x109;" horiz-adv-x="544" 
d="M96 574l107 137h156l107 -137h-137l-45 66h-2l-46 -66h-140zM288 -16q-122 0 -197 76.5t-75 194.5t73.5 194.5t194.5 76.5q103 0 167 -53.5t76 -142.5h-157q-18 76 -84 76q-52 0 -78.5 -40t-26.5 -111t26.5 -110t78.5 -39q79 0 89 88h156q-4 -91 -70 -150.5t-173 -59.5z
" />
    <glyph glyph-name="Cdotaccent" unicode="&#x10a;" horiz-adv-x="702" 
d="M284 753v130h162v-130h-162zM373 -16q-157 0 -255 105t-98 266q0 162 97 268t255 106q122 0 204 -63q93 -69 107 -197h-177q-7 49 -43 81t-92 32q-84 0 -127.5 -62t-43.5 -165q0 -100 47 -163t125 -63q59 0 96 33t43 86h177q-7 -108 -86 -183q-86 -81 -229 -81z" />
    <glyph glyph-name="cdotaccent" unicode="&#x10b;" horiz-adv-x="544" 
d="M288 -16q-122 0 -197 76.5t-75 194.5t73.5 194.5t194.5 76.5q103 0 167 -53.5t76 -142.5h-157q-18 76 -84 76q-52 0 -78.5 -40t-26.5 -111t26.5 -110t78.5 -39q79 0 89 88h156q-4 -91 -70 -150.5t-173 -59.5zM200 583v132h162v-132h-162z" />
    <glyph glyph-name="Ccaron" unicode="&#x10c;" horiz-adv-x="702" 
d="M373 -16q-157 0 -255 105t-98 266q0 162 97 268t255 106q122 0 204 -63q93 -69 107 -197h-177q-7 49 -43 81t-92 32q-84 0 -127.5 -62t-43.5 -165q0 -100 47 -163t125 -63q59 0 96 33t43 86h177q-7 -108 -86 -183q-86 -81 -229 -81zM286 750l-106 125h137l45 -54h2l45 54
h140l-106 -125h-157z" />
    <glyph glyph-name="ccaron" unicode="&#x10d;" horiz-adv-x="544" 
d="M203 571l-106 138h137l45 -66h2l45 66h140l-106 -138h-157zM288 -16q-122 0 -197 76.5t-75 194.5t73.5 194.5t194.5 76.5q103 0 167 -53.5t76 -142.5h-157q-18 76 -84 76q-52 0 -78.5 -40t-26.5 -111t26.5 -110t78.5 -39q79 0 89 88h156q-4 -91 -70 -150.5t-173 -59.5z
" />
    <glyph glyph-name="Dcaron" unicode="&#x10e;" horiz-adv-x="705" 
d="M245 750l-106 125h137l45 -54h2l45 54h140l-106 -125h-157zM226 149h104q87 0 131.5 52t44.5 152q0 99 -45.5 156.5t-128.5 57.5h-106v-418zM49 0v715h305q148 0 239.5 -99t91.5 -263q0 -193 -124 -288q-85 -65 -218 -65h-294z" />
    <glyph glyph-name="dcaron" unicode="&#x10f;" horiz-adv-x="588" 
d="M583 524v47q58 8 58 43h-57v101h125v-79q0 -54 -34.5 -82t-91.5 -30zM240 -16q-100 0 -162 73t-62 199q0 120 62.5 195.5t161.5 75.5q90 0 143 -73h3v261h163v-715h-156v69h-2q-50 -85 -151 -85zM282 113q50 0 79 39.5t29 103.5q0 67 -27 107.5t-79 40.5q-48 0 -75.5 -40
t-27.5 -106q0 -67 26.5 -106t74.5 -39z" />
    <glyph glyph-name="Dcroat" unicode="&#x110;" horiz-adv-x="714" 
d="M235 149h104q87 0 131.5 52t44.5 152q0 99 -45.5 156.5t-128.5 57.5h-106v-134h156v-137h-156v-147zM58 0v296h-55v137h55v282h305q148 0 239.5 -99t91.5 -263q0 -196 -126 -289q-87 -64 -216 -64h-294z" />
    <glyph glyph-name="dcroat" unicode="&#x111;" horiz-adv-x="588" 
d="M266 566v82h120v67h163v-67h51v-82h-51v-566h-156v69h-2q-50 -85 -151 -85q-100 0 -162 73t-62 199q0 120 62.5 195.5t161.5 75.5q90 0 143 -73h3v112h-120zM282 113q50 0 79 39.5t29 103.5q0 67 -27 107.5t-79 40.5q-48 0 -75.5 -40t-27.5 -106q0 -67 26.5 -106
t74.5 -39z" />
    <glyph glyph-name="Emacron" unicode="&#x112;" horiz-adv-x="628" 
d="M186 762v101h286v-101h-286zM49 0v715h542v-146h-365v-128h313v-138h-313v-153h371v-150h-548z" />
    <glyph glyph-name="emacron" unicode="&#x113;" horiz-adv-x="560" 
d="M289 -15q-125 0 -199 76.5t-74 195.5q0 116 73.5 193t189.5 77q105 0 175 -64q92 -84 90 -249h-368q18 -112 115 -112q61 0 85 51h159q-17 -74 -86 -121q-65 -47 -160 -47zM177 311h202q-5 46 -31 73t-66 27q-87 0 -105 -100zM137 587v101h286v-101h-286z" />
    <glyph glyph-name="Ebreve" unicode="&#x114;" horiz-adv-x="628" 
d="M331 744q-69 0 -115 40t-48 105h92q5 -47 70 -47q29 0 48 13.5t21 33.5h92q-3 -64 -47 -104.5t-113 -40.5zM49 0v715h542v-146h-365v-128h313v-138h-313v-153h371v-150h-548z" />
    <glyph glyph-name="ebreve" unicode="&#x115;" horiz-adv-x="560" 
d="M289 -15q-125 0 -199 76.5t-74 195.5q0 116 73.5 193t189.5 77q105 0 175 -64q92 -84 90 -249h-368q18 -112 115 -112q61 0 85 51h159q-17 -74 -86 -121q-65 -47 -160 -47zM177 311h202q-5 46 -31 73t-66 27q-87 0 -105 -100zM281 566q-69 0 -115 40t-48 105h92
q5 -47 70 -47q29 0 48 13.5t21 33.5h92q-3 -64 -47 -104.5t-113 -40.5z" />
    <glyph glyph-name="Edotaccent" unicode="&#x116;" horiz-adv-x="628" 
d="M248 753v130h162v-130h-162zM49 0v715h542v-146h-365v-128h313v-138h-313v-153h371v-150h-548z" />
    <glyph glyph-name="edotaccent" unicode="&#x117;" horiz-adv-x="560" 
d="M289 -15q-125 0 -199 76.5t-74 195.5q0 116 73.5 193t189.5 77q105 0 175 -64q92 -84 90 -249h-368q18 -112 115 -112q61 0 85 51h159q-17 -74 -86 -121q-65 -47 -160 -47zM177 311h202q-5 46 -31 73t-66 27q-87 0 -105 -100zM199 583v132h162v-132h-162z" />
    <glyph glyph-name="Eogonek" unicode="&#x118;" horiz-adv-x="628" 
d="M49 0v715h542v-146h-365v-128h313v-138h-313v-153h371v-150h-33q-57 -31 -57 -63q0 -25 32 -25q17 0 30 5h1v-85q-23 -9 -65 -9q-121 0 -121 86q0 54 60 91h-395z" />
    <glyph glyph-name="eogonek" unicode="&#x119;" horiz-adv-x="560" 
d="M367 -177q-124 0 -124 84q0 47 44 78q-123 0 -197 77t-74 195q0 116 73.5 193t189.5 77q105 0 175 -64q92 -84 90 -249h-368q18 -112 115 -112q61 0 85 51h159q-15 -63 -71 -112q-10 -9 -31.5 -25.5t-33.5 -27t-22.5 -25t-10.5 -26.5q0 -25 31 -25q17 0 30 5h1v-85
q-23 -9 -61 -9zM177 311h202q-5 46 -31 73t-66 27q-87 0 -105 -100z" />
    <glyph glyph-name="Ecaron" unicode="&#x11a;" horiz-adv-x="628" 
d="M251 750l-106 125h137l45 -54h2l45 54h140l-106 -125h-157zM49 0v715h542v-146h-365v-128h313v-138h-313v-153h371v-150h-548z" />
    <glyph glyph-name="ecaron" unicode="&#x11b;" horiz-adv-x="560" 
d="M201 571l-106 138h137l45 -66h2l45 66h140l-106 -138h-157zM289 -15q-125 0 -199 76.5t-74 195.5q0 116 73.5 193t189.5 77q105 0 175 -64q92 -84 90 -249h-368q18 -112 115 -112q61 0 85 51h159q-17 -74 -86 -121q-65 -47 -160 -47zM177 311h202q-5 46 -31 73t-66 27
q-87 0 -105 -100z" />
    <glyph glyph-name="Gcircumflex" unicode="&#x11c;" horiz-adv-x="737" 
d="M361 -16q-150 0 -244 100q-96 104 -96 271q0 173 106 279q95 95 245 95q136 0 217.5 -66.5t99.5 -181.5h-172q-10 46 -46 74t-93 28q-86 0 -131.5 -63t-45.5 -165q0 -101 48.5 -164.5t131.5 -63.5q66 0 107.5 36.5t47.5 88.5v2h-134v130h298v-384h-124l-10 86h-2
q-66 -102 -203 -102zM181 750l107 125h156l107 -125h-137l-45 54h-2l-46 -54h-140z" />
    <glyph glyph-name="gcircumflex" unicode="&#x11d;" horiz-adv-x="572" 
d="M98 574l107 137h156l107 -137h-137l-45 66h-2l-46 -66h-140zM277 -177q-107 0 -172.5 42.5t-77.5 122.5h158q17 -50 90 -50q98 0 98 98v51h-4q-52 -59 -131 -59q-92 0 -157 65t-65 178q0 112 60 184t155 72q94 0 144 -70h2v55h156v-462q0 -109 -68 -170q-64 -57 -188 -57
zM276 149q51 0 77.5 35.5t26.5 92.5q0 54 -27.5 90.5t-76.5 36.5q-46 0 -73.5 -34.5t-27.5 -93.5q0 -58 27.5 -92.5t73.5 -34.5z" />
    <glyph glyph-name="Gbreve" unicode="&#x11e;" horiz-adv-x="737" 
d="M368 744q-69 0 -115 40t-48 105h92q5 -47 70 -47q29 0 48 13.5t21 33.5h92q-3 -64 -47 -104.5t-113 -40.5zM361 -16q-150 0 -244 100q-96 104 -96 271q0 173 106 279q95 95 245 95q136 0 217.5 -66.5t99.5 -181.5h-172q-10 46 -46 74t-93 28q-86 0 -131.5 -63t-45.5 -165
q0 -101 48.5 -164.5t131.5 -63.5q66 0 107.5 36.5t47.5 88.5v2h-134v130h298v-384h-124l-10 86h-2q-66 -102 -203 -102z" />
    <glyph glyph-name="gbreve" unicode="&#x11f;" horiz-adv-x="572" 
d="M277 -177q-107 0 -172.5 42.5t-77.5 122.5h158q17 -50 90 -50q98 0 98 98v51h-4q-52 -59 -131 -59q-92 0 -157 65t-65 178q0 112 60 184t155 72q94 0 144 -70h2v55h156v-462q0 -109 -68 -170q-64 -57 -188 -57zM276 149q51 0 77.5 35.5t26.5 92.5q0 54 -27.5 90.5
t-76.5 36.5q-46 0 -73.5 -34.5t-27.5 -93.5q0 -58 27.5 -92.5t73.5 -34.5zM284 566q-69 0 -115 40t-48 105h92q5 -47 70 -47q29 0 48 13.5t21 33.5h92q-3 -64 -47 -104.5t-113 -40.5z" />
    <glyph glyph-name="Gdotaccent" unicode="&#x120;" horiz-adv-x="737" 
d="M285 753v130h162v-130h-162zM361 -16q-150 0 -244 100q-96 104 -96 271q0 173 106 279q95 95 245 95q136 0 217.5 -66.5t99.5 -181.5h-172q-10 46 -46 74t-93 28q-86 0 -131.5 -63t-45.5 -165q0 -101 48.5 -164.5t131.5 -63.5q66 0 107.5 36.5t47.5 88.5v2h-134v130h298
v-384h-124l-10 86h-2q-66 -102 -203 -102z" />
    <glyph glyph-name="gdotaccent" unicode="&#x121;" horiz-adv-x="572" 
d="M277 -177q-107 0 -172.5 42.5t-77.5 122.5h158q17 -50 90 -50q98 0 98 98v51h-4q-52 -59 -131 -59q-92 0 -157 65t-65 178q0 112 60 184t155 72q94 0 144 -70h2v55h156v-462q0 -109 -68 -170q-64 -57 -188 -57zM276 149q51 0 77.5 35.5t26.5 92.5q0 54 -27.5 90.5
t-76.5 36.5q-46 0 -73.5 -34.5t-27.5 -93.5q0 -58 27.5 -92.5t73.5 -34.5zM202 583v132h162v-132h-162z" />
    <glyph glyph-name="uni0122" unicode="&#x122;" horiz-adv-x="737" 
d="M296 -263v48q66 15 66 60h-63v108h137v-87q0 -60 -39 -92.5t-101 -36.5zM361 -16q-150 0 -244 100q-96 104 -96 271q0 173 106 279q95 95 245 95q136 0 217.5 -66.5t99.5 -181.5h-172q-10 46 -46 74t-93 28q-86 0 -131.5 -63t-45.5 -165q0 -101 48.5 -164.5t131.5 -63.5
q66 0 107.5 36.5t47.5 88.5v2h-134v130h298v-384h-124l-10 86h-2q-66 -102 -203 -102z" />
    <glyph glyph-name="uni0123" unicode="&#x123;" horiz-adv-x="572" 
d="M212 587v87q0 60 39.5 92.5t101.5 36.5v-48q-67 -15 -67 -60h64v-108h-138zM277 -177q-107 0 -172.5 42.5t-77.5 122.5h158q17 -50 90 -50q98 0 98 98v51h-4q-52 -59 -131 -59q-92 0 -157 65t-65 178q0 112 60 184t155 72q94 0 144 -70h2v55h156v-462q0 -109 -68 -170
q-64 -57 -188 -57zM276 149q51 0 77.5 35.5t26.5 92.5q0 54 -27.5 90.5t-76.5 36.5q-46 0 -73.5 -34.5t-27.5 -93.5q0 -58 27.5 -92.5t73.5 -34.5z" />
    <glyph glyph-name="Hcircumflex" unicode="&#x124;" horiz-adv-x="703" 
d="M49 0v715h177v-271h251v271h177v-715h-177v298h-251v-298h-177zM166 750l107 125h156l107 -125h-137l-45 54h-2l-46 -54h-140z" />
    <glyph glyph-name="hcircumflex" unicode="&#x125;" horiz-adv-x="570" 
d="M39 0v715h163v-266h3q59 78 152 78q83 0 130.5 -53.5t47.5 -140.5v-333h-163v300q0 42 -20.5 66.5t-59.5 24.5q-41 0 -65.5 -30t-24.5 -78v-283h-163zM102 750l107 125h156l107 -125h-137l-45 54h-2l-46 -54h-140z" />
    <glyph glyph-name="Hbar" unicode="&#x126;" horiz-adv-x="703" 
d="M-5 519v86h54v110h177v-110h251v110h177v-110h54v-86h-54v-519h-177v298h-251v-298h-177v519h-54zM226 444h251v75h-251v-75z" />
    <glyph glyph-name="hbar" unicode="&#x127;" horiz-adv-x="570" 
d="M-12 566v82h51v67h163v-67h121v-82h-121v-117h3q59 78 152 78q83 0 130.5 -53.5t47.5 -140.5v-333h-163v300q0 42 -20.5 66.5t-59.5 24.5q-41 0 -65.5 -30t-24.5 -78v-283h-163v566h-51z" />
    <glyph glyph-name="Itilde" unicode="&#x128;" horiz-adv-x="276" 
d="M50 0v715h177v-715h-177zM56 751h-84q0 65 29 100t74 35q33 0 66 -19q38 -18 49 -18q25 0 30 35h84q0 -61 -26 -96.5t-74 -35.5q-28 0 -66 16q-41 19 -52 19q-26 0 -30 -36z" />
    <glyph glyph-name="itilde" unicode="&#x129;" horiz-adv-x="241" 
d="M39 0v512h163v-512h-163zM52 571h-82q0 66 26 100.5t67 34.5q27 0 61 -18q29 -16 40 -16q13 0 17.5 7t7.5 25h81q0 -61 -23 -96.5t-66 -35.5q-31 0 -61 16q-36 17 -43 17q-22 0 -25 -34z" />
    <glyph glyph-name="Imacron" unicode="&#x12a;" horiz-adv-x="276" 
d="M50 0v715h177v-715h-177zM-5 762v101h286v-101h-286z" />
    <glyph glyph-name="imacron" unicode="&#x12b;" horiz-adv-x="241" 
d="M39 0v512h163v-512h-163zM-10 587v101h261v-101h-261z" />
    <glyph glyph-name="Iogonek" unicode="&#x12e;" horiz-adv-x="276" 
d="M167 -177q-123 0 -123 86q0 54 60 91h-54v715h177v-710q-60 -40 -60 -68q0 -25 32 -25q17 0 30 5h1v-85q-23 -9 -63 -9z" />
    <glyph glyph-name="iogonek" unicode="&#x12f;" horiz-adv-x="241" 
d="M142 -177q-120 0 -120 84q0 57 69 93h-52v512h163v-508q-57 -38 -57 -67q0 -25 30 -25q17 0 30 5h1v-85q-23 -9 -64 -9zM39 583v132h163v-132h-163z" />
    <glyph glyph-name="Idotaccent" unicode="&#x130;" horiz-adv-x="276" 
d="M50 0v715h177v-715h-177zM57 753v130h162v-130h-162z" />
    <glyph glyph-name="dotlessi" unicode="&#x131;" horiz-adv-x="241" 
d="M39 0v512h163v-512h-163z" />
    <glyph glyph-name="IJ" unicode="&#x132;" horiz-adv-x="814" 
d="M50 0v715h177v-715h-177zM532 -13q-123 0 -186.5 61.5t-63.5 166.5v63h161v-59q0 -86 78 -86q74 0 74 84v498h177v-502q0 -98 -51 -155q-65 -71 -189 -71z" />
    <glyph glyph-name="ij" unicode="&#x133;" horiz-adv-x="481" 
d="M39 0v512h163v-512h-163zM39 583v132h163v-132h-163zM285 -172q-52 0 -92 8v113q27 0 38.5 1t25 6t18 16.5t4.5 31.5v508h163v-516q0 -87 -39 -128q-40 -40 -118 -40zM279 583v132h163v-132h-163z" />
    <glyph glyph-name="Jcircumflex" unicode="&#x134;" horiz-adv-x="545" 
d="M263 -13q-123 0 -186.5 61.5t-63.5 166.5v63h161v-59q0 -86 78 -86q74 0 74 84v498h177v-502q0 -98 -51 -155q-65 -71 -189 -71zM228 750l107 125h156l107 -125h-137l-45 54h-2l-46 -54h-140z" />
    <glyph glyph-name="jcircumflex" unicode="&#x135;" horiz-adv-x="241" 
d="M-42 574l81 137h164l79 -137h-129l-30 62h-2l-31 -62h-132zM45 -172q-52 0 -92 8v113q27 0 38.5 1t25 6t18 16.5t4.5 31.5v508h163v-516q0 -87 -39 -128q-40 -40 -118 -40z" />
    <glyph glyph-name="uni0136" unicode="&#x136;" horiz-adv-x="697" 
d="M272 -263v48q66 15 66 60h-63v108h137v-87q0 -60 -39 -92.5t-101 -36.5zM49 0v715h177v-259l246 259h210l-274 -287l290 -428h-206l-206 309l-60 -63v-246h-177z" />
    <glyph glyph-name="uni0137" unicode="&#x137;" horiz-adv-x="560" 
d="M216 -263v48q66 15 66 60h-63v108h137v-87q0 -60 -39 -92.5t-101 -36.5zM39 0v715h161v-376l152 173h188l-180 -192l201 -320h-189l-123 209l-49 -52v-157h-161z" />
    <glyph glyph-name="Lacute" unicode="&#x139;" horiz-adv-x="565" 
d="M73 750l43 130h187l-106 -130h-124zM49 0v715h177v-565h321v-150h-498z" />
    <glyph glyph-name="lacute" unicode="&#x13a;" horiz-adv-x="245" 
d="M57 750l43 130h187l-106 -130h-124zM40 0v715h165v-715h-165z" />
    <glyph glyph-name="uni013B" unicode="&#x13b;" horiz-adv-x="565" 
d="M228 -263v48q66 15 66 60h-63v108h137v-87q0 -60 -39 -92.5t-101 -36.5zM49 0v715h177v-565h321v-150h-498z" />
    <glyph glyph-name="uni013C" unicode="&#x13c;" horiz-adv-x="245" 
d="M53 -263v48q66 15 66 60h-63v108h137v-87q0 -60 -39 -92.5t-101 -36.5zM40 0v715h165v-715h-165z" />
    <glyph glyph-name="Lcaron" unicode="&#x13d;" horiz-adv-x="565" 
d="M331 514v49q61 8 61 45h-59v107h131v-83q0 -57 -36 -86.5t-97 -31.5zM49 0v715h177v-565h321v-150h-498z" />
    <glyph glyph-name="lcaron" unicode="&#x13e;" horiz-adv-x="245" 
d="M240 524v47q58 8 58 43h-57v101h125v-79q0 -54 -34.5 -82t-91.5 -30zM40 0v715h165v-715h-165z" />
    <glyph glyph-name="Ldot" unicode="&#x13f;" horiz-adv-x="565" 
d="M49 0v715h177v-565h321v-150h-498zM356 267v168h171v-168h-171z" />
    <glyph glyph-name="ldot" unicode="&#x140;" horiz-adv-x="413" 
d="M40 0v715h165v-715h-165zM249 267v165h160v-165h-160z" />
    <glyph glyph-name="Lslash" unicode="&#x141;" horiz-adv-x="572" 
d="M57 0v217l-61 -31v117l61 31v381h177v-288l191 100v-117l-191 -100v-160h321v-150h-498z" />
    <glyph glyph-name="lslash" unicode="&#x142;" horiz-adv-x="276" 
d="M55 0v230l-53 -39v117l53 39v368h165v-246l60 44v-117l-60 -44v-352h-165z" />
    <glyph glyph-name="Nacute" unicode="&#x143;" horiz-adv-x="710" 
d="M296 750l43 130h187l-106 -130h-124zM49 0v715h178l212 -359q1 -2 29 -53q4 -7 11 -20.5t9 -17.5h2q-1 16 -1 46q-1 25 -1 65v339h173v-715h-178l-210 354q-10 12 -30 55q-14 26 -21 41h-2q0 -34 1 -49q0 -15 0.5 -39.5t0.5 -28.5v-333h-173z" />
    <glyph glyph-name="nacute" unicode="&#x144;" horiz-adv-x="570" 
d="M224 572l57 148h188l-121 -148h-124zM39 0v512h157v-70h3q59 85 158 85q83 0 130.5 -53.5t47.5 -140.5v-333h-163v300q0 42 -20.5 66.5t-59.5 24.5q-41 0 -65.5 -30t-24.5 -78v-283h-163z" />
    <glyph glyph-name="uni0145" unicode="&#x145;" horiz-adv-x="710" 
d="M282 -262v48q66 15 66 60h-63v108h137v-87q0 -60 -39 -92.5t-101 -36.5zM49 0v715h178l212 -359q1 -2 29 -53q4 -7 11 -20.5t9 -17.5h2q-1 16 -1 46q-1 25 -1 65v339h173v-715h-178l-210 354q-10 12 -30 55q-14 26 -21 41h-2q0 -34 1 -49q0 -15 0.5 -39.5t0.5 -28.5v-333
h-173z" />
    <glyph glyph-name="uni0146" unicode="&#x146;" horiz-adv-x="570" 
d="M217 -263v48q66 15 66 60h-63v108h137v-87q0 -60 -39 -92.5t-101 -36.5zM39 0v512h157v-70h3q59 85 158 85q83 0 130.5 -53.5t47.5 -140.5v-333h-163v300q0 42 -20.5 66.5t-59.5 24.5q-41 0 -65.5 -30t-24.5 -78v-283h-163z" />
    <glyph glyph-name="Ncaron" unicode="&#x147;" horiz-adv-x="710" 
d="M283 750l-106 125h137l45 -54h2l45 54h140l-106 -125h-157zM49 0v715h178l212 -359q1 -2 29 -53q4 -7 11 -20.5t9 -17.5h2q-1 16 -1 46q-1 25 -1 65v339h173v-715h-178l-210 354q-10 12 -30 55q-14 26 -21 41h-2q0 -34 1 -49q0 -15 0.5 -39.5t0.5 -28.5v-333h-173z" />
    <glyph glyph-name="ncaron" unicode="&#x148;" horiz-adv-x="570" 
d="M212 571l-106 138h137l45 -66h2l45 66h140l-106 -138h-157zM39 0v512h157v-70h3q59 85 158 85q83 0 130.5 -53.5t47.5 -140.5v-333h-163v300q0 42 -20.5 66.5t-59.5 24.5q-41 0 -65.5 -30t-24.5 -78v-283h-163z" />
    <glyph glyph-name="napostrophe" unicode="&#x149;" horiz-adv-x="570" 
d="M39 0v512h157v-70h3q59 85 158 85q83 0 130.5 -53.5t47.5 -140.5v-333h-163v300q0 42 -20.5 66.5t-59.5 24.5q-41 0 -65.5 -30t-24.5 -78v-283h-163zM-42 518v49q60 7 60 44h-59v104h129v-82q0 -56 -35.5 -84.5t-94.5 -30.5z" />
    <glyph glyph-name="Omacron" unicode="&#x14c;" horiz-adv-x="747" 
d="M230 762v101h286v-101h-286zM374 127q84 0 128.5 63.5t44.5 165.5q0 103 -44.5 166.5t-128.5 63.5q-83 0 -128.5 -64t-45.5 -166t45 -165.5t129 -63.5zM373 -17q-160 0 -256.5 105t-96.5 268t96.5 268t256.5 105t257 -105t97 -268t-97 -268t-257 -105z" />
    <glyph glyph-name="omacron" unicode="&#x14d;" horiz-adv-x="579" 
d="M147 587v101h286v-101h-286zM289 100q53 0 81 41.5t28 113.5t-28 114t-81 42t-80.5 -42t-27.5 -114t27.5 -113.5t80.5 -41.5zM290 -16q-122 0 -198 76.5t-76 194.5t76 194.5t198 76.5t197.5 -76.5t75.5 -194.5t-75.5 -194.5t-197.5 -76.5z" />
    <glyph glyph-name="Obreve" unicode="&#x14e;" horiz-adv-x="747" 
d="M375 744q-69 0 -115 40t-48 105h92q5 -47 70 -47q29 0 48 13.5t21 33.5h92q-3 -64 -47 -104.5t-113 -40.5zM374 127q84 0 128.5 63.5t44.5 165.5q0 103 -44.5 166.5t-128.5 63.5q-83 0 -128.5 -64t-45.5 -166t45 -165.5t129 -63.5zM373 -17q-160 0 -256.5 105t-96.5 268
t96.5 268t256.5 105t257 -105t97 -268t-97 -268t-257 -105z" />
    <glyph glyph-name="obreve" unicode="&#x14f;" horiz-adv-x="579" 
d="M289 100q53 0 81 41.5t28 113.5t-28 114t-81 42t-80.5 -42t-27.5 -114t27.5 -113.5t80.5 -41.5zM290 -16q-122 0 -198 76.5t-76 194.5t76 194.5t198 76.5t197.5 -76.5t75.5 -194.5t-75.5 -194.5t-197.5 -76.5zM291 566q-69 0 -115 40t-48 105h92q5 -47 70 -47
q29 0 48 13.5t21 33.5h92q-3 -64 -47 -104.5t-113 -40.5z" />
    <glyph glyph-name="Ohungarumlaut" unicode="&#x150;" horiz-adv-x="747" 
d="M374 127q84 0 128.5 63.5t44.5 165.5q0 103 -44.5 166.5t-128.5 63.5q-83 0 -128.5 -64t-45.5 -166t45 -165.5t129 -63.5zM373 -17q-160 0 -256.5 105t-96.5 268t96.5 268t256.5 105t257 -105t97 -268t-97 -268t-257 -105zM221 750l45 140h158l-102 -140h-101zM416 750
l46 140h158l-103 -140h-101z" />
    <glyph glyph-name="ohungarumlaut" unicode="&#x151;" horiz-adv-x="579" 
d="M138 572l49 148h158l-106 -148h-101zM333 572l49 148h158l-106 -148h-101zM289 100q53 0 81 41.5t28 113.5t-28 114t-81 42t-80.5 -42t-27.5 -114t27.5 -113.5t80.5 -41.5zM290 -16q-122 0 -198 76.5t-76 194.5t76 194.5t198 76.5t197.5 -76.5t75.5 -194.5t-75.5 -194.5
t-197.5 -76.5z" />
    <glyph glyph-name="OE" unicode="&#x152;" horiz-adv-x="1077" 
d="M357 -17q-149 0 -243 105.5t-94 267.5q0 161 93 267t236 106q109 0 180 -64v50h507v-147h-341v-129h288v-137h-288v-147h351v-155h-517v50q-74 -67 -172 -67zM368 127q56 0 94.5 26.5t55.5 61.5v280q-49 91 -150 91q-79 0 -123.5 -64t-44.5 -166t44.5 -165.5t123.5 -63.5
z" />
    <glyph glyph-name="oe" unicode="&#x153;" horiz-adv-x="938" 
d="M290 -16q-122 0 -198 76.5t-76 194.5t76 194.5t198 76.5q118 0 186 -74q69 75 180 75q106 0 176 -64q91 -85 89 -249h-368q18 -112 116 -112q61 0 85 51h158q-17 -73 -85 -121q-65 -47 -161 -47q-120 0 -189 74q-69 -75 -187 -75zM289 100q53 0 81 41.5t28 113.5t-28 114
t-81 42t-80.5 -42t-27.5 -114t27.5 -113.5t80.5 -41.5zM554 311h202q-5 46 -30.5 73t-66.5 27q-87 0 -105 -100z" />
    <glyph glyph-name="Racute" unicode="&#x154;" horiz-adv-x="671" 
d="M49 0v715h342q110 0 180 -54.5t70 -151.5q0 -130 -124 -173v-3q47 -16 71.5 -46.5t32.5 -84.5q6 -36 8.5 -86.5t6.5 -76.5t15 -30v-9h-172q-8 5 -12.5 29t-7.5 68t-7 69q-7 52 -35 77t-84 25h-107v-268h-177zM226 399h133q106 0 106 87q0 40 -26 64.5t-76 24.5h-137v-176
zM263 750l43 130h187l-106 -130h-124z" />
    <glyph glyph-name="racute" unicode="&#x155;" horiz-adv-x="383" 
d="M153 572l57 148h188l-121 -148h-124zM39 0v512h156v-80h3q27 46 60 67t80 21q24 0 32 -4v-140h-4q-76 11 -120 -26t-44 -120v-230h-163z" />
    <glyph glyph-name="uni0156" unicode="&#x156;" horiz-adv-x="671" 
d="M268 -263v48q66 15 66 60h-63v108h137v-87q0 -60 -39 -92.5t-101 -36.5zM49 0v715h342q110 0 180 -54.5t70 -151.5q0 -130 -124 -173v-3q47 -16 71.5 -46.5t32.5 -84.5q6 -36 8.5 -86.5t6.5 -76.5t15 -30v-9h-172q-8 5 -12.5 29t-7.5 68t-7 69q-7 52 -35 77t-84 25h-107
v-268h-177zM226 399h133q106 0 106 87q0 40 -26 64.5t-76 24.5h-137v-176z" />
    <glyph glyph-name="uni0157" unicode="&#x157;" horiz-adv-x="383" 
d="M46 -263v48q66 15 66 60h-63v108h137v-87q0 -60 -39 -92.5t-101 -36.5zM39 0v512h156v-80h3q27 46 60 67t80 21q24 0 32 -4v-140h-4q-76 11 -120 -26t-44 -120v-230h-163z" />
    <glyph glyph-name="Rcaron" unicode="&#x158;" horiz-adv-x="671" 
d="M251 750l-106 125h137l45 -54h2l45 54h140l-106 -125h-157zM49 0v715h342q110 0 180 -54.5t70 -151.5q0 -130 -124 -173v-3q47 -16 71.5 -46.5t32.5 -84.5q6 -36 8.5 -86.5t6.5 -76.5t15 -30v-9h-172q-8 5 -12.5 29t-7.5 68t-7 69q-7 52 -35 77t-84 25h-107v-268h-177z
M226 399h133q106 0 106 87q0 40 -26 64.5t-76 24.5h-137v-176z" />
    <glyph glyph-name="rcaron" unicode="&#x159;" horiz-adv-x="383" 
d="M140 571l-106 138h137l45 -66h2l45 66h140l-106 -138h-157zM39 0v512h156v-80h3q27 46 60 67t80 21q24 0 32 -4v-140h-4q-76 11 -120 -26t-44 -120v-230h-163z" />
    <glyph glyph-name="Sacute" unicode="&#x15a;" horiz-adv-x="650" 
d="M334 -17q-145 0 -231 63t-88 179h178q11 -102 140 -102q48 0 81.5 18.5t33.5 56.5t-32 54.5t-115 36.5q-2 0 -3 0.5t-3 1t-3 0.5q-46 11 -75.5 19.5t-67 26t-59.5 38.5t-37.5 55.5t-15.5 77.5q0 109 78.5 164.5t205.5 55.5q122 0 199 -56t83 -164h-173q-11 86 -115 86
q-47 0 -75 -18.5t-28 -48.5q0 -38 49 -57q25 -9 113 -29q47 -11 78 -21t67.5 -28t57.5 -40t35.5 -57t14.5 -79q0 -109 -82.5 -171t-210.5 -62zM256 750l43 130h187l-106 -130h-124z" />
    <glyph glyph-name="sacute" unicode="&#x15b;" horiz-adv-x="504" 
d="M185 572l57 148h188l-121 -148h-124zM257 -16q-113 0 -179 48.5t-70 133.5h154q10 -76 94 -76q37 0 58.5 13.5t21.5 37.5q0 10 -3.5 17.5t-11 13t-15 9.5t-21.5 7.5t-23.5 5.5t-27.5 5t-28 5q-42 8 -67.5 15.5t-56 24t-45.5 46.5t-15 73q0 78 63 121t158 43
q107 0 166 -43.5t65 -120.5h-150q-5 33 -25.5 46.5t-56.5 13.5q-32 0 -51.5 -12t-19.5 -35q0 -12 6.5 -20t26.5 -14t30 -8.5t43 -7.5q11 -2 17 -3q35 -6 56 -11t51 -17.5t47 -29t29.5 -45t12.5 -66.5q0 -82 -64.5 -126t-168.5 -44z" />
    <glyph glyph-name="Scircumflex" unicode="&#x15c;" horiz-adv-x="650" 
d="M334 -17q-145 0 -231 63t-88 179h178q11 -102 140 -102q48 0 81.5 18.5t33.5 56.5t-32 54.5t-115 36.5q-2 0 -3 0.5t-3 1t-3 0.5q-46 11 -75.5 19.5t-67 26t-59.5 38.5t-37.5 55.5t-15.5 77.5q0 109 78.5 164.5t205.5 55.5q122 0 199 -56t83 -164h-173q-11 86 -115 86
q-47 0 -75 -18.5t-28 -48.5q0 -38 49 -57q25 -9 113 -29q47 -11 78 -21t67.5 -28t57.5 -40t35.5 -57t14.5 -79q0 -109 -82.5 -171t-210.5 -62zM137 750l107 125h156l107 -125h-137l-45 54h-2l-46 -54h-140z" />
    <glyph glyph-name="scircumflex" unicode="&#x15d;" horiz-adv-x="504" 
d="M66 574l107 137h156l107 -137h-137l-45 66h-2l-46 -66h-140zM257 -16q-113 0 -179 48.5t-70 133.5h154q10 -76 94 -76q37 0 58.5 13.5t21.5 37.5q0 10 -3.5 17.5t-11 13t-15 9.5t-21.5 7.5t-23.5 5.5t-27.5 5t-28 5q-42 8 -67.5 15.5t-56 24t-45.5 46.5t-15 73
q0 78 63 121t158 43q107 0 166 -43.5t65 -120.5h-150q-5 33 -25.5 46.5t-56.5 13.5q-32 0 -51.5 -12t-19.5 -35q0 -12 6.5 -20t26.5 -14t30 -8.5t43 -7.5q11 -2 17 -3q35 -6 56 -11t51 -17.5t47 -29t29.5 -45t12.5 -66.5q0 -82 -64.5 -126t-168.5 -44z" />
    <glyph glyph-name="Scedilla" unicode="&#x15e;" horiz-adv-x="650" 
d="M298 -193q-64 0 -112 29l20 35q32 -15 69 -15q54 0 54 29q0 27 -38 27q-16 0 -35 -7l-17 24l55 56q-128 8 -202.5 70t-76.5 170h178q11 -102 140 -102q48 0 81.5 18.5t33.5 56.5t-32 54.5t-115 36.5q-2 0 -3 0.5t-3 1t-3 0.5q-46 11 -75.5 19.5t-67 26t-59.5 38.5
t-37.5 55.5t-15.5 77.5q0 109 78.5 164.5t205.5 55.5q122 0 199 -56t83 -164h-173q-11 86 -115 86q-47 0 -75 -18.5t-28 -48.5q0 -38 49 -57q25 -9 113 -29q47 -11 78 -21t67.5 -28t57.5 -40t35.5 -57t14.5 -79q0 -104 -76.5 -166t-197.5 -66l-36 -31v-2q45 6 75.5 -12
t30.5 -55q0 -35 -35 -56t-90 -21z" />
    <glyph glyph-name="scedilla" unicode="&#x15f;" horiz-adv-x="504" 
d="M227 -193q-64 0 -112 29l20 35q32 -15 69 -15q54 0 54 29q0 27 -38 27q-16 0 -35 -7l-17 24l56 56q-99 8 -156 55.5t-60 125.5h154q10 -76 94 -76q37 0 58.5 13.5t21.5 37.5q0 10 -3.5 17.5t-11 13t-15 9.5t-21.5 7.5t-23.5 5.5t-27.5 5t-28 5q-42 8 -67.5 15.5t-56 24
t-45.5 46.5t-15 73q0 78 63 121t158 43q107 0 166 -43.5t65 -120.5h-150q-5 33 -25.5 46.5t-56.5 13.5q-32 0 -51.5 -12t-19.5 -35q0 -12 6.5 -20t26.5 -14t30 -8.5t43 -7.5q11 -2 17 -3q35 -6 56 -11t51 -17.5t47 -29t29.5 -45t12.5 -66.5q0 -76 -56 -119.5t-150 -49.5
l-38 -32v-2q45 6 75.5 -12t30.5 -55q0 -35 -35 -56t-90 -21z" />
    <glyph glyph-name="Scaron" unicode="&#x160;" horiz-adv-x="650" 
d="M334 -17q-145 0 -231 63t-88 179h178q11 -102 140 -102q48 0 81.5 18.5t33.5 56.5t-32 54.5t-115 36.5q-2 0 -3 0.5t-3 1t-3 0.5q-46 11 -75.5 19.5t-67 26t-59.5 38.5t-37.5 55.5t-15.5 77.5q0 109 78.5 164.5t205.5 55.5q122 0 199 -56t83 -164h-173q-11 86 -115 86
q-47 0 -75 -18.5t-28 -48.5q0 -38 49 -57q25 -9 113 -29q47 -11 78 -21t67.5 -28t57.5 -40t35.5 -57t14.5 -79q0 -109 -82.5 -171t-210.5 -62zM244 750l-106 125h137l45 -54h2l45 54h140l-106 -125h-157z" />
    <glyph glyph-name="scaron" unicode="&#x161;" horiz-adv-x="504" 
d="M172 571l-106 138h137l45 -66h2l45 66h140l-106 -138h-157zM257 -16q-113 0 -179 48.5t-70 133.5h154q10 -76 94 -76q37 0 58.5 13.5t21.5 37.5q0 10 -3.5 17.5t-11 13t-15 9.5t-21.5 7.5t-23.5 5.5t-27.5 5t-28 5q-42 8 -67.5 15.5t-56 24t-45.5 46.5t-15 73
q0 78 63 121t158 43q107 0 166 -43.5t65 -120.5h-150q-5 33 -25.5 46.5t-56.5 13.5q-32 0 -51.5 -12t-19.5 -35q0 -12 6.5 -20t26.5 -14t30 -8.5t43 -7.5q11 -2 17 -3q35 -6 56 -11t51 -17.5t47 -29t29.5 -45t12.5 -66.5q0 -82 -64.5 -126t-168.5 -44z" />
    <glyph glyph-name="uni0162" unicode="&#x162;" horiz-adv-x="629" 
d="M244 -263v48q66 15 66 60h-63v108h137v-87q0 -60 -39 -92.5t-101 -36.5zM225 0v565h-208v150h595v-150h-210v-565h-177z" />
    <glyph glyph-name="uni0163" unicode="&#x163;" horiz-adv-x="351" 
d="M125 -263v48q66 15 66 60h-63v108h137v-87q0 -60 -39 -92.5t-101 -36.5zM242 -6q-78 0 -120.5 31.5t-42.5 109.5v275h-68v102h68v162h159v-162h93v-102h-93v-240q0 -28 14.5 -39t42.5 -11q9 0 21 0.5t15 0.5v-119q-30 -8 -89 -8z" />
    <glyph glyph-name="Tcaron" unicode="&#x164;" horiz-adv-x="629" 
d="M236 750l-106 125h137l45 -54h2l45 54h140l-106 -125h-157zM225 0v565h-208v150h595v-150h-210v-565h-177z" />
    <glyph glyph-name="tcaron" unicode="&#x165;" horiz-adv-x="351" 
d="M11 410v102h68v162h159v-162h93v-102h-93v-240q0 -50 57 -50q9 0 22 0.5t14 0.5v-119q-30 -8 -89 -8q-78 0 -120.5 31.5t-42.5 109.5v275h-68zM273 533v47q58 7 58 40h-57v95h125v-77q0 -100 -126 -105z" />
    <glyph glyph-name="Tbar" unicode="&#x166;" horiz-adv-x="629" 
d="M91 295v105h134v165h-208v150h595v-150h-210v-165h136v-105h-136v-295h-177v295h-134z" />
    <glyph glyph-name="tbar" unicode="&#x167;" horiz-adv-x="351" 
d="M11 410v102h68v162h159v-162h93v-102h-93v-61h93v-82h-93v-97q0 -50 57 -50q9 0 21 0.5t15 0.5v-119q-30 -8 -89 -8q-78 0 -120.5 31.5t-42.5 109.5v132h-69v82h69v61h-68z" />
    <glyph glyph-name="Utilde" unicode="&#x168;" horiz-adv-x="686" 
d="M261 751h-84q0 65 29 100t74 35q33 0 66 -19q38 -18 49 -18q25 0 30 35h84q0 -61 -26 -96.5t-74 -35.5q-28 0 -66 16q-41 19 -52 19q-25 0 -30 -36zM344 -13q-149 0 -224.5 68.5t-75.5 196.5v463h177v-469q0 -117 123 -117q60 0 90.5 32.5t30.5 87.5v466h177v-463
q0 -126 -75.5 -195.5t-222.5 -69.5z" />
    <glyph glyph-name="utilde" unicode="&#x169;" 
d="M215 -15q-87 0 -133.5 51.5t-46.5 139.5v336h162v-302q0 -87 77 -87q42 0 66 28.5t24 74.5v286h163v-512h-156v63h-3q-57 -78 -153 -78zM200 571h-84q0 65 29 100t74 35q33 0 66 -19q38 -18 49 -18q25 0 30 35h84q0 -61 -26 -96.5t-74 -35.5q-28 0 -66 16q-41 19 -52 19
q-26 0 -30 -36z" />
    <glyph glyph-name="Umacron" unicode="&#x16a;" horiz-adv-x="686" 
d="M199 762v101h286v-101h-286zM344 -13q-149 0 -224.5 68.5t-75.5 196.5v463h177v-469q0 -117 123 -117q60 0 90.5 32.5t30.5 87.5v466h177v-463q0 -126 -75.5 -195.5t-222.5 -69.5z" />
    <glyph glyph-name="umacron" unicode="&#x16b;" 
d="M215 -15q-87 0 -133.5 51.5t-46.5 139.5v336h162v-302q0 -87 77 -87q42 0 66 28.5t24 74.5v286h163v-512h-156v63h-3q-57 -78 -153 -78zM139 587v101h286v-101h-286z" />
    <glyph glyph-name="Ubreve" unicode="&#x16c;" horiz-adv-x="686" 
d="M344 744q-69 0 -115 40t-48 105h92q5 -47 70 -47q29 0 48 13.5t21 33.5h92q-3 -64 -47 -104.5t-113 -40.5zM344 -13q-149 0 -224.5 68.5t-75.5 196.5v463h177v-469q0 -117 123 -117q60 0 90.5 32.5t30.5 87.5v466h177v-463q0 -126 -75.5 -195.5t-222.5 -69.5z" />
    <glyph glyph-name="ubreve" unicode="&#x16d;" 
d="M215 -15q-87 0 -133.5 51.5t-46.5 139.5v336h162v-302q0 -87 77 -87q42 0 66 28.5t24 74.5v286h163v-512h-156v63h-3q-57 -78 -153 -78zM283 566q-69 0 -115 40t-48 105h92q5 -47 70 -47q29 0 48 13.5t21 33.5h92q-3 -64 -47 -104.5t-113 -40.5z" />
    <glyph glyph-name="Uring" unicode="&#x16e;" horiz-adv-x="686" 
d="M344 -13q-149 0 -224.5 68.5t-75.5 196.5v463h177v-469q0 -117 123 -117q60 0 90.5 32.5t30.5 87.5v466h177v-463q0 -126 -75.5 -195.5t-222.5 -69.5zM342 782q18 0 30 12.5t12 30.5t-12 30.5t-30 12.5t-29.5 -12.5t-11.5 -30.5t11.5 -30.5t29.5 -12.5zM342 727
q-42 0 -72 28t-30 70q0 41 30 69.5t72 28.5t72 -28.5t30 -69.5q0 -42 -30 -70t-72 -28z" />
    <glyph glyph-name="uring" unicode="&#x16f;" 
d="M281 614q18 0 30 12t12 30t-12 30.5t-30 12.5t-29.5 -12.5t-11.5 -30.5t11.5 -30t29.5 -12zM281 558q-42 0 -72 28.5t-30 69.5q0 42 30 70.5t72 28.5t72 -28.5t30 -70.5q0 -41 -30 -69.5t-72 -28.5zM215 -15q-87 0 -133.5 51.5t-46.5 139.5v336h162v-302q0 -87 77 -87
q42 0 66 28.5t24 74.5v286h163v-512h-156v63h-3q-57 -78 -153 -78z" />
    <glyph glyph-name="Uhungarumlaut" unicode="&#x170;" horiz-adv-x="686" 
d="M344 -13q-149 0 -224.5 68.5t-75.5 196.5v463h177v-469q0 -117 123 -117q60 0 90.5 32.5t30.5 87.5v466h177v-463q0 -126 -75.5 -195.5t-222.5 -69.5zM190 750l45 140h158l-102 -140h-101zM385 750l46 140h158l-103 -140h-101z" />
    <glyph glyph-name="uhungarumlaut" unicode="&#x171;" 
d="M215 -15q-87 0 -133.5 51.5t-46.5 139.5v336h162v-302q0 -87 77 -87q42 0 66 28.5t24 74.5v286h163v-512h-156v63h-3q-57 -78 -153 -78zM130 572l49 148h158l-106 -148h-101zM325 572l49 148h158l-106 -148h-101z" />
    <glyph glyph-name="Uogonek" unicode="&#x172;" horiz-adv-x="686" 
d="M399 -177q-123 0 -123 84q0 45 44 81q-137 5 -206.5 73.5t-69.5 190.5v463h177v-469q0 -117 123 -117q60 0 90.5 32.5t30.5 87.5v466h177v-463q0 -168 -141 -234q-57 -27 -79.5 -43.5t-22.5 -37.5q0 -25 32 -25q17 0 30 5h1v-85q-23 -9 -63 -9z" />
    <glyph glyph-name="uogonek" unicode="&#x173;" 
d="M466 -177q-121 0 -121 84q0 57 71 93h-45v63h-3q-57 -78 -153 -78q-87 0 -133.5 51.5t-46.5 139.5v336h162v-302q0 -87 77 -87q42 0 66 28.5t24 74.5v286h163v-506q-59 -41 -59 -69q0 -25 31 -25q17 0 30 5h1v-85q-23 -9 -64 -9z" />
    <glyph glyph-name="Wcircumflex" unicode="&#x174;" horiz-adv-x="940" 
d="M196 0l-196 715h179l72 -300q5 -21 13 -66t9 -48q3 -21 11 -63h2q2 14 11 58q19 88 24 112l67 307h164l67 -305q5 -25 23 -113q4 -23 11 -59h2l12 63q12 64 24 116l71 298h178l-196 -715h-173l-75 343q-3 11 -17 88q-1 8 -4 23t-4 22h-2q-1 -8 -4 -23t-4 -22
q0 -2 -6 -36.5t-10 -51.5l-75 -343h-174zM285 750l107 125h156l107 -125h-137l-45 54h-2l-46 -54h-140z" />
    <glyph glyph-name="wcircumflex" unicode="&#x175;" horiz-adv-x="783" 
d="M206 574l107 137h156l107 -137h-137l-45 66h-2l-46 -66h-140zM155 0l-157 512h166l56 -212q1 -6 7.5 -29.5t8.5 -35.5q3 -12 7 -34h2l7 35q8 42 16 67l54 209h138l56 -209q7 -31 16 -68q1 -5 3.5 -17t4.5 -18h2q2 6 4.5 18t3.5 17q2 7 4.5 20t5.5 24.5t6 20.5l57 212h161
l-157 -512h-153l-60 232q-5 15 -15 61q-3 11 -7 31h-2q-4 -20 -7 -31q-2 -11 -8 -32.5t-8 -28.5l-61 -232h-151z" />
    <glyph glyph-name="Ycircumflex" unicode="&#x176;" horiz-adv-x="663" 
d="M243 0v264l-242 451h193l92 -185q7 -14 32 -73l15 -36h2l15 36q9 20 34 73l91 185h187l-242 -451v-264h-177zM148 750l107 125h156l107 -125h-137l-45 54h-2l-46 -54h-140z" />
    <glyph glyph-name="ycircumflex" unicode="&#x177;" horiz-adv-x="529" 
d="M56 -169v127h56q67 0 67 54q0 25 -31 106l-151 394h172l69 -218q4 -14 11.5 -41t10.5 -37q1 -7 5 -20.5t5 -19.5h2q2 6 5 19.5t4 20.5q8 39 21 78l67 218h163l-177 -519q-30 -90 -73 -126t-120 -36h-106zM82 574l107 137h156l107 -137h-137l-45 66h-2l-46 -66h-140z" />
    <glyph glyph-name="Ydieresis" unicode="&#x178;" horiz-adv-x="663" 
d="M243 0v264l-242 451h193l92 -185q7 -14 32 -73l15 -36h2l15 36q9 20 34 73l91 185h187l-242 -451v-264h-177zM149 753v128h153v-128h-153zM364 753v128h153v-128h-153z" />
    <glyph glyph-name="Zacute" unicode="&#x179;" horiz-adv-x="648" 
d="M26 0v141l309 370q4 4 13.5 15t14.5 17q6 7 20 21v3q-10 -1 -28 -1q-15 -1 -40 -1h-264v150h557v-139l-300 -360q-4 -5 -16 -18t-19 -21q-4 -4 -11.5 -12.5t-11.5 -12.5v-3q21 0 31 1q9 0 26 0.5t22 0.5h292v-151h-595zM266 750l43 130h187l-106 -130h-124z" />
    <glyph glyph-name="zacute" unicode="&#x17a;" horiz-adv-x="505" 
d="M203 572l57 148h188l-121 -148h-124zM24 0v121l203 219l27 27q5 6 17 18v3q-9 -1 -26 -1h-37h-160v124h420v-119l-194 -211l-32 -32q-3 -3 -9.5 -10t-10.5 -11v-3h29q9 0 25 0.5t22 0.5h185v-126h-459z" />
    <glyph glyph-name="Zdotaccent" unicode="&#x17b;" horiz-adv-x="648" 
d="M251 753v130h162v-130h-162zM26 0v141l309 370q4 4 13.5 15t14.5 17q6 7 20 21v3q-10 -1 -28 -1q-15 -1 -40 -1h-264v150h557v-139l-300 -360q-4 -5 -16 -18t-19 -21q-4 -4 -11.5 -12.5t-11.5 -12.5v-3q21 0 31 1q9 0 26 0.5t22 0.5h292v-151h-595z" />
    <glyph glyph-name="zdotaccent" unicode="&#x17c;" horiz-adv-x="505" 
d="M24 0v121l203 219l27 27q5 6 17 18v3q-9 -1 -26 -1h-37h-160v124h420v-119l-194 -211l-32 -32q-3 -3 -9.5 -10t-10.5 -11v-3h29q9 0 25 0.5t22 0.5h185v-126h-459zM188 583v132h162v-132h-162z" />
    <glyph glyph-name="Zcaron" unicode="&#x17d;" horiz-adv-x="648" 
d="M254 750l-106 125h137l45 -54h2l45 54h140l-106 -125h-157zM26 0v141l309 370q4 4 13.5 15t14.5 17q6 7 20 21v3q-10 -1 -28 -1q-15 -1 -40 -1h-264v150h557v-139l-300 -360q-4 -5 -16 -18t-19 -21q-4 -4 -11.5 -12.5t-11.5 -12.5v-3q21 0 31 1q9 0 26 0.5t22 0.5h292
v-151h-595z" />
    <glyph glyph-name="zcaron" unicode="&#x17e;" horiz-adv-x="505" 
d="M191 571l-106 138h137l45 -66h2l45 66h140l-106 -138h-157zM24 0v121l203 219l27 27q5 6 17 18v3q-9 -1 -26 -1h-37h-160v124h420v-119l-194 -211l-32 -32q-3 -3 -9.5 -10t-10.5 -11v-3h29q9 0 25 0.5t22 0.5h185v-126h-459z" />
    <glyph glyph-name="florin" unicode="&#x192;" horiz-adv-x="425" 
d="M-17 -151v106q39 -3 55.5 6t22.5 47l45 307h-77v102h92l19 129q11 77 55 114q58 52 207 33v-114q-51 3 -71.5 -5.5t-26.5 -45.5l-16 -111h97v-102h-112l-47 -326q-12 -83 -58 -118q-30 -23 -83 -26.5t-102 4.5z" />
    <glyph glyph-name="uni0218" unicode="&#x218;" horiz-adv-x="650" 
d="M252 -263v48q66 15 66 60h-63v108h137v-87q0 -60 -39 -92.5t-101 -36.5zM334 -17q-145 0 -231 63t-88 179h178q11 -102 140 -102q48 0 81.5 18.5t33.5 56.5t-32 54.5t-115 36.5q-2 0 -3 0.5t-3 1t-3 0.5q-46 11 -75.5 19.5t-67 26t-59.5 38.5t-37.5 55.5t-15.5 77.5
q0 109 78.5 164.5t205.5 55.5q122 0 199 -56t83 -164h-173q-11 86 -115 86q-47 0 -75 -18.5t-28 -48.5q0 -38 49 -57q25 -9 113 -29q47 -11 78 -21t67.5 -28t57.5 -40t35.5 -57t14.5 -79q0 -109 -82.5 -171t-210.5 -62z" />
    <glyph glyph-name="uni0219" unicode="&#x219;" horiz-adv-x="504" 
d="M181 -263v48q66 15 66 60h-63v108h137v-87q0 -60 -39 -92.5t-101 -36.5zM257 -16q-113 0 -179 48.5t-70 133.5h154q10 -76 94 -76q37 0 58.5 13.5t21.5 37.5q0 10 -3.5 17.5t-11 13t-15 9.5t-21.5 7.5t-23.5 5.5t-27.5 5t-28 5q-42 8 -67.5 15.5t-56 24t-45.5 46.5
t-15 73q0 78 63 121t158 43q107 0 166 -43.5t65 -120.5h-150q-5 33 -25.5 46.5t-56.5 13.5q-32 0 -51.5 -12t-19.5 -35q0 -12 6.5 -20t26.5 -14t30 -8.5t43 -7.5q11 -2 17 -3q35 -6 56 -11t51 -17.5t47 -29t29.5 -45t12.5 -66.5q0 -82 -64.5 -126t-168.5 -44z" />
    <glyph glyph-name="uni021A" unicode="&#x21a;" horiz-adv-x="629" 
d="M244 -263v48q66 15 66 60h-63v108h137v-87q0 -60 -39 -92.5t-101 -36.5zM225 0v565h-208v150h595v-150h-210v-565h-177z" />
    <glyph glyph-name="uni021B" unicode="&#x21b;" horiz-adv-x="351" 
d="M125 -263v48q66 15 66 60h-63v108h137v-87q0 -60 -39 -92.5t-101 -36.5zM242 -6q-78 0 -120.5 31.5t-42.5 109.5v275h-68v102h68v162h159v-162h93v-102h-93v-240q0 -28 14.5 -39t42.5 -11q9 0 21 0.5t15 0.5v-119q-30 -8 -89 -8z" />
    <glyph glyph-name="circumflex" unicode="&#x2c6;" horiz-adv-x="500" 
d="M65 574l107 137h156l107 -137h-137l-45 66h-2l-46 -66h-140z" />
    <glyph glyph-name="caron" unicode="&#x2c7;" horiz-adv-x="500" 
d="M172 571l-106 138h137l45 -66h2l45 66h140l-106 -138h-157z" />
    <glyph glyph-name="uni02C9" unicode="&#x2c9;" horiz-adv-x="500" 
d="M110 592v101h286v-101h-286z" />
    <glyph glyph-name="breve" unicode="&#x2d8;" horiz-adv-x="500" 
d="M271 566q-69 0 -115 40t-48 105h92q5 -47 70 -47q29 0 48 13.5t21 33.5h92q-3 -64 -47 -104.5t-113 -40.5z" />
    <glyph glyph-name="dotaccent" unicode="&#x2d9;" horiz-adv-x="500" 
d="M169 583v132h162v-132h-162z" />
    <glyph glyph-name="ring" unicode="&#x2da;" horiz-adv-x="500" 
d="M250 614q18 0 30 12t12 30t-12 30.5t-30 12.5t-29.5 -12.5t-11.5 -30.5t11.5 -30t29.5 -12zM250 558q-42 0 -72 28.5t-30 69.5q0 42 30 70.5t72 28.5t72 -28.5t30 -70.5q0 -41 -30 -69.5t-72 -28.5z" />
    <glyph glyph-name="ogonek" unicode="&#x2db;" horiz-adv-x="500" 
d="M245 -177q-124 0 -124 84q0 60 70 93h101q-48 -41 -48 -63q0 -25 31 -25q17 0 30 5h1v-85q-23 -9 -61 -9z" />
    <glyph glyph-name="tilde" unicode="&#x2dc;" horiz-adv-x="500" 
d="M168 571h-84q0 65 29 100t74 35q33 0 66 -19q38 -18 49 -18q25 0 30 35h84q0 -61 -26 -96.5t-74 -35.5q-28 0 -66 16q-41 19 -52 19q-26 0 -30 -36z" />
    <glyph glyph-name="hungarumlaut" unicode="&#x2dd;" horiz-adv-x="500" 
d="M96 572l49 148h158l-106 -148h-101zM291 572l49 148h158l-106 -148h-101z" />
    <glyph glyph-name="uni0394" unicode="&#x394;" horiz-adv-x="680" 
d="M198 133h276l-106 304q-3 8 -6.5 19t-7.5 25t-6 22q-1 6 -4.5 19t-5.5 21h-2q-9 -32 -11 -40t-6 -22t-7.5 -25t-6.5 -19zM22 0v110l227 605h181l229 -604v-111h-637z" />
    <glyph glyph-name="uni03A9" unicode="&#x3a9;" horiz-adv-x="741" 
d="M29 0v133h101v3q-109 69 -109 245q0 153 96.5 250.5t253.5 97.5q156 0 252.5 -97.5t96.5 -250.5q0 -176 -108 -245v-3h100v-133h-306v128q134 28 134 235q0 107 -43 165t-126 58q-84 0 -127 -58t-43 -165q0 -207 134 -235v-128h-306z" />
    <glyph glyph-name="uni03BC" unicode="&#x3bc;" horiz-adv-x="570" 
d="M39 -169v681h162v-303q0 -87 77 -87q42 0 66 28t24 75v287h163v-512h-156v63h-3q-46 -76 -121 -76q-29 0 -50 15h-2v-171h-160z" />
    <glyph glyph-name="pi" unicode="&#x3c0;" horiz-adv-x="633" 
d="M530 -5q-153 0 -153 136v279h-132v-410h-159v410h-71v102h594v-102h-73v-254q0 -23 8.5 -32.5t28.5 -9.5q12 0 26 2v-114q-30 -7 -69 -7z" />
    <glyph glyph-name="endash" unicode="&#x2013;" horiz-adv-x="500" 
d="M0 185v140h500v-140h-500z" />
    <glyph glyph-name="emdash" unicode="&#x2014;" horiz-adv-x="1000" 
d="M100 185v140h800v-140h-800z" />
    <glyph glyph-name="quoteleft" unicode="&#x2018;" horiz-adv-x="218" 
d="M34 421v131q0 73 43 116q42 43 109 50v-58q-31 -9 -51 -33.5t-20 -56.5h68v-149h-149z" />
    <glyph glyph-name="quoteright" unicode="&#x2019;" horiz-adv-x="218" 
d="M32 418v58q31 9 51 33.5t20 56.5h-68v149h149v-131q0 -73 -43 -116q-42 -43 -109 -50z" />
    <glyph glyph-name="quotesinglbase" unicode="&#x201a;" horiz-adv-x="218" 
d="M32 -149v59q30 9 50.5 33t20.5 57h-68v149h149v-131q0 -72 -43 -117q-42 -42 -109 -50z" />
    <glyph glyph-name="quotedblleft" unicode="&#x201c;" horiz-adv-x="428" 
d="M34 421v131q0 73 43 116q42 43 109 50v-58q-31 -9 -51 -33.5t-20 -56.5h68v-149h-149zM244 421v131q0 73 43 116q42 43 109 50v-58q-31 -9 -51 -33.5t-20 -56.5h68v-149h-149z" />
    <glyph glyph-name="quotedblright" unicode="&#x201d;" horiz-adv-x="428" 
d="M32 418v58q31 9 51 33.5t20 56.5h-68v149h149v-131q0 -73 -43 -116q-42 -43 -109 -50zM242 418v58q31 9 51 33.5t20 56.5h-68v149h149v-131q0 -73 -43 -116q-42 -43 -109 -50z" />
    <glyph glyph-name="quotedblbase" unicode="&#x201e;" horiz-adv-x="428" 
d="M32 -149v59q30 9 50.5 33t20.5 57h-68v149h149v-131q0 -72 -43 -117q-42 -42 -109 -50zM242 -149v59q30 9 50.5 33t20.5 57h-68v149h149v-131q0 -72 -43 -117q-42 -42 -109 -50z" />
    <glyph glyph-name="dagger" unicode="&#x2020;" horiz-adv-x="589" 
d="M210 -143v524h-176v134h176v200h170v-200h175v-134h-175v-524h-170z" />
    <glyph glyph-name="daggerdbl" unicode="&#x2021;" horiz-adv-x="590" 
d="M210 -143v201h-176v134h176v189h-176v134h176v200h170v-200h175v-134h-175v-189h175v-134h-175v-201h-170z" />
    <glyph glyph-name="bullet" unicode="&#x2022;" horiz-adv-x="374" 
d="M187 170q-61 0 -105.5 44t-44.5 106t44.5 106t105.5 44t105.5 -44t44.5 -106t-44.5 -106t-105.5 -44z" />
    <glyph glyph-name="ellipsis" unicode="&#x2026;" horiz-adv-x="756" 
d="M32 0v168h171v-168h-171zM293 0v168h171v-168h-171zM554 0v168h170v-168h-170z" />
    <glyph glyph-name="perthousand" unicode="&#x2030;" horiz-adv-x="1267" 
d="M203 386q60 0 60 113q0 116 -60 116t-60 -116q0 -113 60 -113zM203 299q-79 0 -131 55.5t-52 144.5q0 91 51 146t132 55q82 0 132.5 -55t50.5 -146q0 -90 -51 -145t-132 -55zM200 0l370 686h93l-369 -686h-94zM661 70q60 0 60 114q0 115 -60 115t-60 -115q0 -114 60 -114
zM661 -17q-79 0 -131 55t-52 146q0 90 51 145t132 55q82 0 132.5 -54.5t50.5 -145.5t-51 -146t-132 -55zM1065 70q60 0 60 114q0 52 -15 83.5t-45 31.5q-60 0 -60 -115q0 -114 60 -114zM1064 -17q-79 0 -131 55t-52 146q0 89 52 144.5t131 55.5q83 0 133.5 -54.5
t50.5 -145.5t-51 -146t-133 -55z" />
    <glyph glyph-name="guilsinglleft" unicode="&#x2039;" horiz-adv-x="265" 
d="M214 34l-170 141v154l170 140v-149l-85 -68v-2l85 -68v-148z" />
    <glyph glyph-name="guilsinglright" unicode="&#x203a;" horiz-adv-x="265" 
d="M51 34v149l85 68v2l-85 68v148l170 -141v-154z" />
    <glyph glyph-name="fraction" unicode="&#x2044;" horiz-adv-x="284" 
d="M-181 0l544 715h102l-545 -715h-101z" />
    <glyph glyph-name="Euro" unicode="&#x20ac;" horiz-adv-x="651" 
d="M368 -16q-116 0 -195 70.5t-103 190.5h-55v64h47q-1 11 -1 32v25h-46v65h54q22 122 101.5 195.5t195.5 73.5q121 0 190.5 -67.5t79.5 -178.5h-166q-15 112 -106 112q-99 0 -123 -135h154v-65h-160v-57h160v-64h-153q26 -126 126 -126q50 0 77 34t34 90h162
q-6 -117 -77.5 -188t-195.5 -71z" />
    <glyph glyph-name="uni2113" unicode="&#x2113;" horiz-adv-x="401" 
d="M226 -5q-84 0 -126 33.5t-42 121.5v26q-16 -5 -48 -13v96l48 16v281q0 167 171 167q153 0 153 -166q0 -213 -168 -314v-60q0 -37 12.5 -50t49.5 -13q22 0 55 3v-119q-25 -9 -105 -9zM214 564v-194q7 6 14 17q42 60 42 177q0 31 -6.5 43.5t-21.5 12.5q-28 0 -28 -56z" />
    <glyph glyph-name="trademark" unicode="&#x2122;" horiz-adv-x="699" 
d="M314 440v275h121l43 -155h2l44 155h122v-275h-82v165h-2l-51 -165h-65l-50 165h-2v-165h-80zM109 440v203h-78v72h245v-72h-78v-203h-89z" />
    <glyph glyph-name="Omega" unicode="&#x2126;" horiz-adv-x="741" 
d="M29 0v133h101v3q-109 69 -109 245q0 153 96.5 250.5t253.5 97.5q156 0 252.5 -97.5t96.5 -250.5q0 -176 -108 -245v-3h100v-133h-306v128q134 28 134 235q0 107 -43 165t-126 58q-84 0 -127 -58t-43 -165q0 -207 134 -235v-128h-306z" />
    <glyph glyph-name="estimated" unicode="&#x212e;" horiz-adv-x="621" 
d="M327 -11q-141 0 -221.5 88t-80.5 232q0 140 83.5 229t213.5 89q109 0 177 -59q98 -82 96 -267h-414v-222q54 -42 146 -42q86 0 136.5 38t76.5 111h51q-21 -90 -88.5 -143.5t-175.5 -53.5zM181 345h262v205q-52 32 -121 32q-88 0 -141 -43v-194z" />
    <glyph glyph-name="partialdiff" unicode="&#x2202;" horiz-adv-x="580" 
d="M270 -15q-120 0 -185 63t-65 167q0 113 69 184.5t178 71.5q76 0 116 -38q-32 127 -234 151v138q201 -10 304 -113t103 -295q0 -156 -72 -242.5t-214 -86.5zM272 101q54 0 83 44.5t29 107.5q0 105 -88 105q-52 0 -82.5 -38t-30.5 -105q0 -57 23.5 -85.5t65.5 -28.5z" />
    <glyph glyph-name="Delta" unicode="&#x2206;" horiz-adv-x="680" 
d="M198 133h276l-106 304q-3 8 -6.5 19t-7.5 25t-6 22q-1 6 -4.5 19t-5.5 21h-2q-9 -32 -11 -40t-6 -22t-7.5 -25t-6.5 -19zM22 0v110l227 605h181l229 -604v-111h-637z" />
    <glyph glyph-name="product" unicode="&#x220f;" horiz-adv-x="719" 
d="M53 -100v815h613v-815h-174v670h-265v-670h-174z" />
    <glyph glyph-name="summation" unicode="&#x2211;" horiz-adv-x="611" 
d="M32 -100v145l252 270v2l-252 258v140h540v-138h-341v-2l223 -221v-70l-230 -240v-2h358v-142h-550z" />
    <glyph glyph-name="minus" unicode="&#x2212;" 
d="M40 264v131h486v-131h-486z" />
    <glyph glyph-name="uni2215" unicode="&#x2215;" horiz-adv-x="284" 
d="M-181 0l544 701h102l-545 -701h-101z" />
    <glyph glyph-name="uni2219" unicode="&#x2219;" horiz-adv-x="235" 
d="M32 234v168h171v-168h-171z" />
    <glyph glyph-name="radical" unicode="&#x221a;" horiz-adv-x="652" 
d="M219 -100l-130 300h-75v138h187l49 -124q17 -44 28 -78q9 -29 11 -34h2q2 6 4.5 18t3.5 17q11 47 23 78l161 500h162l-269 -815h-157z" />
    <glyph glyph-name="infinity" unicode="&#x221e;" horiz-adv-x="725" 
d="M185 119q-76 0 -119.5 53t-43.5 133t44 133t119 53q59 0 101 -28t79 -81q38 53 78 81t96 28q73 0 118.5 -51t45.5 -135q0 -85 -45 -135.5t-119 -50.5q-55 0 -95.5 27.5t-78.5 80.5q-37 -53 -79 -80.5t-101 -27.5zM200 237q42 0 82 67q-40 68 -82 68q-26 0 -39.5 -18.5
t-13.5 -48.5q0 -68 53 -68zM526 237q27 0 40.5 18.5t13.5 49.5q0 29 -13.5 48t-40.5 19q-24 0 -42 -17.5t-37 -50.5q40 -67 79 -67z" />
    <glyph glyph-name="integral" unicode="&#x222b;" horiz-adv-x="365" 
d="M90 -176q-53 0 -95 11v120h1q17 -4 47 -4q31 0 45 11t14 41v571q0 83 38 124q43 43 138 43q55 0 94 -10v-121h-2q-25 5 -48 5q-31 -1 -44 -12t-13 -40v-572q0 -83 -38 -123q-44 -44 -137 -44z" />
    <glyph glyph-name="approxequal" unicode="&#x2248;" horiz-adv-x="546" 
d="M141 125h-107q1 86 37.5 127.5t100.5 41.5q37 0 112 -17t94 -17q18 0 25.5 7.5t9.5 25.5h107q0 -163 -131 -163q-41 0 -116.5 16t-94.5 16q-33 0 -37 -37zM141 334h-107q1 86 37.5 127t100.5 41q37 0 112 -16.5t94 -16.5q18 0 25.5 7.5t9.5 25.5h107q0 -163 -131 -163
q-41 0 -116.5 16t-94.5 16q-33 0 -37 -37z" />
    <glyph glyph-name="notequal" unicode="&#x2260;" horiz-adv-x="563" 
d="M51 354v125h265l39 84h103l-39 -84h100v-125h-159l-41 -89h200v-125h-259l-38 -82h-103l38 82h-106v125h165l41 89h-206z" />
    <glyph glyph-name="lessequal" unicode="&#x2264;" horiz-adv-x="502" 
d="M455 130l-412 137v152l412 137v-130l-183 -57q-9 -3 -61 -17q-5 -1 -17 -4t-17 -5v-2q5 -2 17 -4.5t17 -3.5q10 -2 30.5 -7.5t30.5 -8.5l183 -53v-134zM43 0v113h412v-113h-412z" />
    <glyph glyph-name="greaterequal" unicode="&#x2265;" horiz-adv-x="502" 
d="M47 130v133l183 55q10 3 30.5 8t30.5 8q6 2 17 4t17 4v2q-6 2 -17 5t-17 4q-52 14 -61 17l-183 55v131l412 -137v-152zM47 0v113h412v-113h-412z" />
    <glyph glyph-name="lozenge" unicode="&#x25ca;" horiz-adv-x="596" 
d="M298 139h2l113 215l-115 223h-2l-113 -217zM218 0l-202 358l201 357h161l202 -358l-201 -357h-161z" />
    <glyph glyph-name="fi" unicode="&#xfb01;" horiz-adv-x="588" 
d="M76 0v408h-67v104h67v37q0 66 30 102q58 80 228 61v-115q-51 2 -73.5 -9.5t-22.5 -50.5v-25h96v-104h-96v-408h-162zM386 0v512h163v-512h-163zM386 583v132h163v-132h-163z" />
    <glyph glyph-name="fl" unicode="&#xfb02;" horiz-adv-x="593" 
d="M77 0v408h-66v104h66v37q0 65 30 102q29 40 90.5 55t138.5 6v-115q-51 2 -73.5 -9.5t-22.5 -50.5v-25h96v-104h-96v-408h-163zM388 0v715h165v-715h-165z" />
    </font>
</defs>
</svg>
